<svg xmlns="http://www.w3.org/2000/svg" xmlns:xlink="http://www.w3.org/1999/xlink" width="439" height="522" contentScriptType="application/ecmascript" contentStyleType="text/css" style="width:439px;height:522px" preserveAspectRatio="none" version="1.1" viewBox="0 0 439 522" zoomAndPan="magnify"><defs><filter id="f255kzea4atd2" width="300%" height="300%" x="-1" y="-1"><feGaussianBlur result="blurOut" stdDeviation="2"/><feColorMatrix in="blurOut" result="blurOut2" type="matrix" values="0 0 0 0 0 0 0 0 0 0 0 0 0 0 0 0 0 0 .4 0"/><feOffset dx="4" dy="4" in="blurOut2" result="blurOut3"/><feBlend in="SourceGraphic" in2="blurOut3" mode="normal"/></filter></defs><g><polygon fill="#FFF" points="271 24 271 24.07 279 23.862 287 24.064 295 24.133 303 23.762 311 24 310.975 23.992 312.264 28.417 313.678 32.88 315.178 37.371 316.38 41.769 318 46.297 318 46.85 327.5 45.667 337 46.099 346.5 46.729 356 46.211 365.5 46.365 375 46.297 374.968 46.297 375.178 57.081 375.239 67.865 375.586 78.648 375.671 89.432 375.679 100.216 375 111 375 111.255 364.6 111.464 354.2 111.702 343.8 110.279 333.4 111.678 323 110.704 312.6 111.534 302.2 110.505 291.8 110.931 281.4 111.742 271 111 270.951 111 271.105 101.333 271.339 91.667 271.416 82 270.996 72.333 271.287 62.667 270.428 53 271.284 43.333 271.548 33.667 271 24" filter="url(#f255kzea4atd2)" style="stroke:#000;stroke-width:1.5"/><path fill="#FFF" d="M271,46.2969 L271,46.5771 L280.4,45.7444 L289.8,46.5546 L299.2,46.8298 L308.6,45.3457 L318,46.2969" style="stroke:#000;stroke-width:1.5"/><text x="280" y="38.995" fill="#000" font-family="sans-serif" font-size="14" font-weight="bold" lengthAdjust="spacingAndGlyphs" textLength="24">bin</text><polygon fill="#FFF" points="22 135 22 135.07 28.8 134.862 35.6 135.064 42.4 135.133 49.2 134.762 56 135 55.975 134.992 57.264 139.417 58.678 143.881 60.178 148.371 61.38 152.768 63 157.297 63 157.851 73.114 156.667 83.229 157.099 93.343 157.729 103.457 157.211 113.571 157.365 123.686 157.265 133.8 157.475 143.914 157.536 154.029 157.883 164.143 157.968 174.257 157.976 184.371 157.552 194.486 157.761 204.6 157.999 214.714 156.576 224.829 157.975 234.943 157 245.057 157.831 255.171 156.802 265.286 157.228 275.4 158.038 285.514 157.248 295.629 157.402 305.743 157.636 315.857 157.713 325.971 157.293 336.086 157.584 346.2 156.725 356.314 157.581 366.429 157.845 376.543 157.741 386.657 157.91 396.771 156.814 406.886 156.645 417 157.297 416.379 157.297 416.941 167.374 416.803 177.451 417.681 187.529 416.825 197.606 416.657 207.683 417.228 217.76 416.333 227.838 416.481 237.915 417.649 247.992 417.436 258.069 417.735 268.146 416.678 278.224 417.319 288.301 417.59 298.378 416.528 308.455 416.904 318.533 417.126 328.61 417.652 338.687 416.996 348.764 417.463 358.841 416.446 368.919 416.323 378.996 417.504 389.073 416.283 399.15 417.509 409.228 417.207 419.305 416.732 429.382 416.646 439.459 417.459 449.537 416.701 459.614 417.592 469.691 416.447 479.768 417.617 489.846 417.484 499.923 417 510 417 510.245 407.125 510.047 397.25 510.727 387.375 510.614 377.5 510.169 367.625 510.268 357.75 509.87 347.875 510.716 338 510.155 328.125 510.173 318.25 509.392 308.375 509.595 298.5 510.531 288.625 510.43 278.75 509.957 268.875 509.678 259 509.781 249.125 509.314 239.25 510.415 229.375 510.74 219.5 510.526 209.625 510.695 199.75 509.863 189.875 510.087 180 509.612 170.125 510.284 160.25 510.247 150.375 510.552 140.5 509.77 130.625 509.866 120.75 510.443 110.875 510.567 101 509.488 91.125 509.806 81.25 510.149 71.375 509.389 61.5 510.353 51.625 510.258 41.75 509.899 31.875 510.142 22 510 22.729 510 21.687 500.132 22.315 490.263 22.286 480.395 22.116 470.526 22.141 460.658 22.113 450.789 21.376 440.921 21.599 431.053 21.538 421.184 22.064 411.316 22.088 401.447 22.162 391.579 21.709 381.711 21.933 371.842 21.88 361.974 22.577 352.105 22.427 342.237 21.515 332.368 21.927 322.5 21.423 312.632 22.288 302.763 22.608 292.895 22.545 283.026 21.564 273.158 22.464 263.289 21.257 253.421 22.2 243.553 21.701 233.684 22.097 223.816 22.24 213.947 22.472 204.079 21.28 194.21 22.476 184.342 22.178 174.474 22.355 164.605 22.748 154.737 22.006 144.868 22 135" filter="url(#f255kzea4atd2)" style="stroke:#000;stroke-width:1.5"/><path fill="#FFF" d="M22,157.2969 L22,157.3903 L30.2,157.1127 L38.4,157.3828 L46.6,157.4745 L54.8,156.9798 L63,157.2969" style="stroke:#000;stroke-width:1.5"/><text x="31" y="149.995" fill="#000" font-family="sans-serif" font-size="14" font-weight="bold" lengthAdjust="spacingAndGlyphs" textLength="18">lib</text><polygon fill="#F8F8F8" points="287 59 287 59.21 297.286 58.586 307.571 59.193 317.857 59.4 328.143 58.287 338.429 58.922 348.714 58.574 359 59 358.872 59 358.977 66.259 358.769 73.519 359.185 80.778 358.79 88.037 359 95.297 359 95.099 348.714 95.729 338.429 95.211 328.143 95.365 317.857 95.265 307.571 95.475 297.286 95.536 287 95.297 287.195 95.297 287.224 88.037 287.226 80.778 287.085 73.519 287.154 66.259 287 59" filter="url(#f255kzea4atd2)" style="stroke:#000;stroke-width:1.5"/><text x="297" y="81.995" fill="#000" font-family="sans-serif" font-size="14" lengthAdjust="spacingAndGlyphs" textLength="52">eslint.js</text><polygon fill="#F8F8F8" points="258.5 170 258.5 170.21 268.3 169.586 278.1 170.193 287.9 170.4 297.7 169.287 307.5 170 307.474 170 307.358 177.259 307.372 184.519 307.477 191.778 307.269 199.037 307.5 206.297 307.5 206.851 297.7 205.667 287.9 206.099 278.1 206.729 268.3 206.211 258.5 206.297 258.523 206.297 258.489 199.037 258.56 191.778 258.58 184.519 258.695 177.259 258.5 170" filter="url(#f255kzea4atd2)" style="stroke:#000;stroke-width:1.5"/><text x="268.5" y="192.995" fill="#000" font-family="sans-serif" font-size="14" lengthAdjust="spacingAndGlyphs" textLength="29">cli.js</text><polygon fill="#F8F8F8" points="130.5 170 130.5 170.21 139.667 169.586 148.833 170.193 158 170.4 167.167 169.287 176.333 169.922 185.5 170 185.358 170 185.372 177.259 185.477 184.519 185.269 191.778 185.685 199.037 185.5 206.297 185.5 205.667 176.333 206.099 167.167 206.729 158 206.211 148.833 206.365 139.667 206.265 130.5 206.297 130.56 206.297 130.58 199.037 130.695 191.778 130.724 184.519 130.726 177.259 130.5 170" filter="url(#f255kzea4atd2)" style="stroke:#000;stroke-width:1.5"/><text x="140.5" y="192.995" fill="#000" font-family="sans-serif" font-size="14" lengthAdjust="spacingAndGlyphs" textLength="35">api.js</text><polygon fill="#F8F8F8" points="343 170 343 170.07 351 169.862 359 170.064 367 170.133 375 169.762 383 170 382.974 170 382.858 177.259 382.872 184.519 382.977 191.778 382.769 199.037 383 206.297 383 206.481 375 206.087 367 206.231 359 206.441 351 206.268 343 206.297 343.023 206.297 342.989 199.037 343.06 191.778 343.08 184.519 343.195 177.259 343 170" filter="url(#f255kzea4atd2)" style="stroke:#000;stroke-width:1.5"/><text x="353" y="192.995" fill="#000" font-family="sans-serif" font-size="14" lengthAdjust="spacingAndGlyphs" textLength="20">init</text><polygon fill="#F8F8F8" points="239.5 266 239.5 266.21 249.167 265.586 258.833 266.193 268.5 266.4 278.167 265.287 287.833 265.922 297.5 265.574 307.167 265.616 316.833 265.932 326.5 266 326.269 266 326.685 273.259 326.29 280.519 326.434 287.778 326.644 295.038 326.5 302.297 326.5 302.211 316.833 302.365 307.167 302.265 297.5 302.475 287.833 302.536 278.167 302.883 268.5 302.968 258.833 302.976 249.167 302.551 239.5 302.297 239.655 302.297 239.734 295.038 239.26 287.778 239.726 280.519 239.401 273.259 239.5 266" filter="url(#f255kzea4atd2)" style="stroke:#000;stroke-width:1.5"/><text x="249.5" y="288.995" fill="#000" font-family="sans-serif" font-size="14" lengthAdjust="spacingAndGlyphs" textLength="67">cli-engine</text><polygon fill="#F8F8F8" points="178 362 178 362.21 188.8 361.586 199.6 362.193 210.4 362.4 221.2 361.287 232 362 231.974 362 231.858 369.259 231.872 376.519 231.977 383.778 231.769 391.038 232 398.297 232 398.851 221.2 397.667 210.4 398.099 199.6 398.729 188.8 398.211 178 398.297 178.023 398.297 177.989 391.038 178.06 383.778 178.08 376.519 178.195 369.259 178 362" filter="url(#f255kzea4atd2)" style="stroke:#000;stroke-width:1.5"/><text x="188" y="384.995" fill="#000" font-family="sans-serif" font-size="14" lengthAdjust="spacingAndGlyphs" textLength="34">linter</text><polygon fill="#F8F8F8" points="94 458 94 458.21 103.818 457.586 113.636 458.193 123.454 458.4 133.273 457.287 143.091 457.922 152.909 457.574 162.727 457.616 172.546 457.932 182.364 457.309 192.182 458.554 202 458 201.79 458 201.934 465.259 202.144 472.519 201.971 479.778 202.023 487.038 202 494.297 202 494.265 192.182 494.475 182.364 494.536 172.546 494.883 162.727 494.968 152.909 494.976 143.091 494.551 133.273 494.76 123.454 494.999 113.636 493.576 103.818 494.975 94 494.297 93.901 494.297 94.178 487.038 93.835 479.778 93.977 472.519 94.247 465.259 94 458" filter="url(#f255kzea4atd2)" style="stroke:#000;stroke-width:1.5"/><text x="104" y="480.995" fill="#000" font-family="sans-serif" font-size="14" lengthAdjust="spacingAndGlyphs" textLength="88">source-code</text><polygon fill="#F8F8F8" points="75 266 75 266.21 85.222 265.586 95.444 266.193 105.667 266.4 115.889 265.287 126.111 265.922 136.333 265.574 146.556 265.616 156.778 265.932 167 266 166.769 266 167.185 273.259 166.79 280.519 166.934 287.778 167.144 295.038 167 302.297 167 302.211 156.778 302.365 146.556 302.265 136.333 302.475 126.111 302.536 115.889 302.883 105.667 302.968 95.444 302.976 85.222 302.551 75 302.297 75.154 302.297 75.234 295.038 74.76 287.778 75.226 280.519 74.901 273.259 75 266" filter="url(#f255kzea4atd2)" style="stroke:#000;stroke-width:1.5"/><text x="85" y="288.995" fill="#000" font-family="sans-serif" font-size="14" lengthAdjust="spacingAndGlyphs" textLength="72">rule-tester</text><polygon fill="#F8F8F8" points="292 458 292 458.21 302.8 457.586 313.6 458.193 324.4 458.4 335.2 457.287 346 458 345.974 458 345.858 465.259 345.872 472.519 345.977 479.778 345.769 487.038 346 494.297 346 494.851 335.2 493.667 324.4 494.099 313.6 494.729 302.8 494.211 292 494.297 292.023 494.297 291.989 487.038 292.06 479.778 292.08 472.519 292.195 465.259 292 458" filter="url(#f255kzea4atd2)" style="stroke:#000;stroke-width:1.5"/><text x="302" y="480.995" fill="#000" font-family="sans-serif" font-size="14" lengthAdjust="spacingAndGlyphs" textLength="34">rules</text><path fill="none" d="M283,206.241 L283.2802,206.241 L282.4476,217.0844 L283.2577,227.9278 L283.5329,238.7712 L282.0488,249.6146 L283,260.458" style="stroke:#383838;stroke-width:1;stroke-dasharray:7,7"/><polygon fill="#383838" points="283 265.868 283.064 265.897 283.674 264.012 284.659 262.294 285.522 260.522 285.983 258.571 287 256.868 286.982 256.85 286.099 257.567 285.31 258.378 284.584 259.252 283.637 259.905 283 260.868 283.13 260.998 282.051 259.919 281.353 259.221 280.702 258.57 279.78 257.648 279 256.868 279.021 256.877 279.79 258.664 280.654 260.492 281.473 262.3 282.378 264.147 283 265.868" style="stroke:#383838;stroke-width:1"/><path fill="none" d="M164.598,206.218 L164.6858,206.2498 L165.3624,208.7409 L166.5537,211.4186 L167.5775,214.0355 L168.0499,216.4526 L169.2854,219.1463 L169.2528,219.1351 L170.1313,222.0705 L171.1745,225.0624 L172.3322,228.0937 L173.0954,230.9895 L174.4111,234.075 L174.6456,234.1496 L175.1581,237.1793 L176.3552,240.4267 L177.6359,243.7006 L178.4305,246.82 L179.4808,250.0207 L179.5099,250.029 L180.3709,253.2127 L181.3648,256.434 L182.2946,259.6372 L183.3466,262.875 L184,266 L184.2895,266.0718 L184.8849,268.4606 L185.2936,270.8033 L185.9756,273.2136 L186.6705,275.6272 L186.9594,277.9401 L186.6468,277.8693 L187.8079,280.4546 L187.9397,282.8068 L188.8539,285.3361 L188.9623,287.683 L189.7313,290.1795 L189.7015,290.1733 L190.5688,292.7088 L190.7398,295.0987 L191.3217,297.5745 L191.9381,300.0575 L192.3056,302.4885 L192.4872,302.5238 L192.7773,304.9179 L193.3776,307.3724 L193.476,309.7291 L194.3231,312.2317 L194.6724,314.6373 L194.9123,314.6799 L195.6811,319.2515 L196.569,323.8442 L196.9035,328.3385 L197.6437,332.905 L198.7433,337.5354 L198.4706,337.4917 L199.3416,341.4314 L199.9053,345.3218 L200.9148,349.2836 L201.1632,353.1236 L201.864,357.036" style="stroke:#383838;stroke-width:1;stroke-dasharray:7,7"/><polygon fill="#383838" points="202.609 361.988 202.677 362.007 202.999 360.052 203.717 358.207 204.307 356.326 204.472 354.329 205.225 352.493 205.204 352.478 204.438 353.319 203.778 354.237 203.19 355.21 202.351 355.997 201.865 357.044 201.974 357.192 200.83 356.203 200.005 355.647 199.22 355.144 198.207 354.333 197.314 353.684 197.333 353.696 198.364 355.339 199.482 357.037 200.558 358.709 201.715 360.432 202.609 361.988" style="stroke:#383838;stroke-width:1"/><path fill="none" d="M180.637,206.023 L180.8054,206.247 L188.6809,211.8801 L197.5437,218.8263 L206.085,225.3449 L213.5689,230.4574 L222.4542,237.4335 L230.5506,243.3605 L238.9609,249.705 L247.5895,256.3397 L256.02,262.711" style="stroke:#383838;stroke-width:1;stroke-dasharray:7,7"/><polygon fill="#383838" points="260.109 265.786 260.17 265.82 259.031 263.998 258.25 262.375 257.352 260.687 256.07 258.786 255.32 257.18 255.294 257.176 255.338 258.28 255.51 259.402 255.773 260.537 255.726 261.628 256.113 262.781 256.139 262.964 254.963 262.731 253.863 263.033 252.772 263.399 251.628 263.387 250.512 263.574 250.517 263.596 252.429 264.006 254.364 264.517 256.288 264.979 258.233 265.534 260.109 265.786" style="stroke:#383838;stroke-width:1"/><path fill="none" d="M151.214,206.241 L151.4748,206.3436 L147.1148,215.147 L144.2835,224.5521 L140.9544,233.7612 L135.9882,242.3259 L133.1917,251.7447 L129.703,260.891" style="stroke:#383838;stroke-width:1;stroke-dasharray:7,7"/><polygon fill="#383838" points="127.743 265.868 127.792 265.918 129.05 264.388 130.596 263.15 132.048 261.817 133.191 260.171 134.761 258.958 134.751 258.935 133.667 259.279 132.636 259.744 131.64 260.292 130.52 260.553 129.574 261.215 129.744 261.289 128.93 260.094 128.611 259.114 128.352 258.161 127.743 257.054 127.317 256.028 127.34 256.029 127.392 257.996 127.547 259.967 127.652 261.936 127.853 263.909 127.743 265.868" style="stroke:#383838;stroke-width:1"/><path fill="none" d="M130.322,201.197 L130.3661,201.2794 L128.3323,202.0528 L126.5568,203.309 L124.6972,204.4081 L122.561,204.99 L120.8077,206.2877 L120.7901,206.258 L118.6963,207.3171 L116.6911,208.526 L114.7475,209.839 L112.5916,210.7931 L110.7332,212.25 L110.8691,212.4552 L108.5175,213.3821 L106.5627,214.908 L104.6563,216.5069 L102.4682,217.6807 L100.4283,219.0781 L100.4466,219.1023 L98.3788,220.6043 L96.394,222.2166 L94.3692,223.7757 L92.4209,225.4363 L90.2232,226.766 L90.4195,226.9906 L88.4668,228.7017 L86.3875,230.268 L84.4936,232.0463 L82.6083,233.8346 L80.4478,235.308 L80.2166,235.086 L78.8622,237.3949 L76.7465,238.9728 L75.2096,241.1064 L73.0766,242.6678 L71.4322,244.6982 L71.4081,244.6796 L70.1076,246.9466 L68.2447,248.778 L66.7136,250.8664 L65.2104,252.9765 L63.5062,254.9308 L63.6657,255.0246 L62.2035,257.1438 L61.0138,259.4232 L59.3832,261.4434 L58.4102,263.8502 L57,266 L57.2262,266.0905 L56.1593,268.6338 L55.2046,271.2221 L53.7282,273.6016 L52.6342,276.1342 L51.8792,278.8023 L51.6099,278.741 L51.259,281.4103 L50.6046,284.0106 L50.3904,286.711 L49.4247,289.2404 L48.9057,291.8715 L48.7537,291.8598 L48.8036,294.529 L48.2038,297.1483 L48.066,299.8031 L48.3804,302.4925 L47.8896,305.1202 L48.0829,305.1311 L48.3658,307.8068 L48.0474,310.4486 L48.4821,313.1328 L48.7527,315.8078 L48.6409,318.4612 L48.4341,318.4251 L49.0647,321.1231 L49.6276,323.8092 L50.3235,326.5186 L50.5021,329.1377 L50.9697,331.8072 L51.1677,331.8626 L51.4759,334.3935 L52.1663,337.0314 L53.4149,339.8257 L53.6358,342.3321 L54.6859,345.0708 L54.8977,345.1502 L55.7546,347.7218 L56.5399,350.2665 L57.4869,352.8719 L58.8077,355.6176 L59.5996,358.1647 L59.4788,358.109 L61.0227,360.8423 L61.745,363.1966 L63.4015,365.9818 L64.532,368.5244 L65.5208,371.0017 L65.6166,371.0534 L66.887,373.5102 L68.5005,376.1521 L69.804,378.6268 L70.9779,381.0315 L72.2595,383.4944 L72.3612,383.5565 L73.6833,385.8764 L75.4777,388.4848 L76.7379,390.7669 L78.2179,393.1832 L79.6257,395.5555 L79.4017,395.404 L81.0373,397.763 L82.9426,400.3045 L84.4662,402.5878 L85.8529,404.7785 L87.4295,407.0977 L87.3142,407.0128 L88.9614,409.2272 L90.4045,411.2912 L92.4088,413.7685 L94.1353,416.0413 L95.4809,418.0337 L95.6644,418.1789 L97.3449,420.2739 L98.6769,422.0929 L100.3767,424.2032 L101.8331,426.1207 L103.59,428.2761 L103.6865,428.3575 L105.2692,430.2392 L106.9683,432.219 L108.2979,433.8873 L109.9256,435.807 L111.5666,437.7378 L111.7138,437.8689 L113.2858,439.6242 L114.4583,441.0237 L116.0949,442.8366 L117.7396,444.6567 L119.221,446.3313 L119.0227,446.1459 L120.7641,447.9662 L122.1615,449.4649 L123.4735,450.8836 L124.9808,452.485 L126.363,453.9694" style="stroke:#383838;stroke-width:1;stroke-dasharray:7,7"/><polygon fill="#383838" points="130.215 457.947 130.281 457.971 129.408 456.05 128.92 454.27 128.307 452.444 127.281 450.467 126.827 448.699 126.801 448.699 126.666 449.828 126.663 450.959 126.75 452.092 126.524 453.22 126.736 454.355 126.739 454.54 125.602 454.127 124.473 454.253 123.345 454.445 122.211 454.254 121.08 454.265 121.089 454.286 122.903 454.991 124.756 455.793 126.591 456.548 128.461 457.391 130.215 457.947" style="stroke:#383838;stroke-width:1"/><path fill="none" d="M364.479,206.028 L364.5724,206.0308 L364.3539,207.9725 L364.6828,209.9306 L364.8334,211.8834 L364.3979,213.8185 L364.7738,215.7781 L364.7393,215.7777 L364.5593,218.014 L364.5534,220.2522 L364.6685,222.4917 L364.3666,224.7266 L364.6488,226.968 L364.8944,226.9829 L364.2207,229.3971 L364.264,231.8549 L364.3948,234.318 L364.0166,236.7502 L363.9061,239.1986 L363.9362,239.2023 L363.5803,241.7714 L363.3615,244.3572 L363.0766,246.9349 L362.9178,249.5279 L362.3477,252.0711 L362.6404,252.1285 L362.1296,254.7523 L361.4301,257.339 L361.0068,259.98 L360.5965,262.6235 L359.7759,265.1865 L359.4682,265.0966 L359.3087,267.8628 L358.1361,270.3332 L357.7336,273.0285 L356.538,275.4922 L355.9926,278.1457 L355.9645,278.1339 L355.2581,280.7538 L353.8955,283.099 L352.9201,285.6063 L351.9773,288.1272 L350.7999,290.5499 L350.959,290.6443 L349.4384,292.839 L348.1897,295.1951 L346.5012,297.29 L345.4687,299.7745 L344,302 L344.1881,302.1549 L342.0187,304.7175 L339.9427,307.357 L337.4328,309.6394 L335.2409,312.1835 L333.3309,314.9597 L333.1421,314.7582 L330.841,317.2567 L328.3273,319.5282 L326.1221,322.129 L323.39,324.1675 L320.9711,326.5402 L320.8792,326.4185 L318.3143,328.6727 L315.3566,330.4067 L312.6783,332.5106 L310.2731,334.9764 L307.3814,336.7977 L307.4841,336.9619 L304.6829,338.8725 L301.562,340.2728 L298.8414,342.3124 L296.0336,344.2127 L293.0226,345.7884 L292.9242,345.6029 L290.0693,347.3067 L287.1821,348.9498 L284.3582,350.7122 L281.2882,352.0106 L278.3557,353.5683 L278.441,353.7553 L275.3506,354.6694 L272.425,355.9446 L269.74,357.7471 L266.6119,358.5786 L263.8414,360.1936 L263.9249,360.4038 L261.0951,361.3843 L258.237,362.2937 L255.4428,363.3636 L252.796,364.8045 L249.9405,365.7204 L249.8966,365.5949 L247.462,366.8657 L244.7288,367.2824 L242.3352,368.6702 L239.7503,369.5113 L237.114,370.205" style="stroke:#383838;stroke-width:1;stroke-dasharray:7,7"/><polygon fill="#383838" points="232.067 371.819 232.075 371.889 234.01 371.896 235.99 372.311 237.956 372.593 239.874 372.438 241.858 372.888 241.846 372.865 240.787 372.243 239.788 371.738 238.83 371.313 237.73 370.61 236.829 370.296 236.994 370.381 237.161 369.194 237.808 368.255 238.512 367.345 238.877 366.261 239.421 365.268 239.436 365.285 237.943 366.57 236.519 367.933 235.062 369.258 233.668 370.655 232.067 371.819" style="stroke:#383838;stroke-width:1"/><path fill="none" d="M348.327,206.241 L348.5404,206.4226 L341.1576,213.8127 L335.0258,222.2675 L328.4867,230.3755 L320.6078,237.3434 L314.5045,245.8224 L307.4017,253.4507 L301.086,261.749" style="stroke:#383838;stroke-width:1;stroke-dasharray:7,7"/><polygon fill="#383838" points="297.58 265.868 297.61 265.931 299.296 264.891 301.16 264.222 302.965 263.431 304.58 262.245 306.459 261.607 306.457 261.581 305.32 261.556 304.194 261.661 303.074 261.856 301.93 261.74 300.821 262.06 301.005 262.075 300.521 260.916 300.574 259.8 300.692 258.689 300.429 257.547 300.367 256.422 300.389 256.428 299.799 258.308 299.309 260.217 298.771 262.112 298.325 264.034 297.58 265.868" style="stroke:#383838;stroke-width:1"/><path fill="none" d="M363.642,206.316 L363.7354,206.3174 L363.5159,210.2338 L363.844,214.1583 L363.9937,218.0802 L363.5571,221.9934 L363.9322,225.9186 L363.8976,225.9185 L363.736,228.2327 L363.7484,230.5473 L363.8819,232.8623 L363.5983,235.1761 L363.8989,237.4916 L364.1449,237.4959 L363.5754,239.9637 L363.7241,242.4441 L363.9606,244.926 L363.6871,247.399 L363.6817,249.8766 L363.7121,249.8777 L363.5776,252.4602 L363.5812,255.0475 L363.5181,257.6324 L363.5821,260.2218 L363.232,262.7968 L363.5298,262.8133 L363.3872,265.4492 L363.0526,268.0745 L362.9991,270.7153 L362.9588,273.3569 L362.501,275.9753 L362.1815,275.9495 L362.5893,278.6315 L361.9452,281.2287 L362.1008,283.8904 L361.4328,286.4856 L361.4399,289.1353 L361.4096,289.1319 L361.4795,291.7449 L360.8424,294.2788 L360.6225,296.8593 L360.4375,299.4438 L360,302 L360.1832,302.0257 L359.707,304.0758 L359.5439,306.1698 L358.8743,308.1928 L358.9602,310.3217 L358.5438,312.3802 L358.7844,312.4184 L358.4055,314.5135 L358.146,316.6276 L357.3315,318.6537 L356.9238,320.7443 L356.8767,322.892 L356.6046,322.8444 L356.4805,325.005 L356.0498,327.1119 L356.0638,329.2966 L355.3185,331.3486 L355.0246,333.4794 L354.8748,333.451 L354.722,335.6197 L353.9289,337.6671 L353.5912,339.8007 L353.699,342.0188 L353.0134,344.0865 L353.2029,344.1261 L352.4537,348.3632 L351.1149,352.4771 L350.5145,356.7453 L349.7533,360.9799 L348.6172,365.1362 L348.4126,365.0889 L347.6313,369.2181 L346.783,373.3317 L346.0663,377.4757 L344.8378,381.5016 L343.8953,385.5935 L344.0947,385.6432 L342.6883,389.4175 L341.667,393.2878 L341.2081,397.2983 L339.7137,401.0506 L339.0547,405.0112 L339.2734,405.0691 L338.1931,408.6208 L337.0388,412.1529 L336.0516,415.7292 L335.4502,419.4079 L334.3028,422.9418 L334.1746,422.9061 L333.6649,426.2116 L332.2836,429.2743 L331.8933,432.6131 L330.9451,435.7964 L329.8465,438.9379 L329.951,438.9682 L329.0759,441.6666 L328.5752,444.4736 L327.7363,447.1825 L326.7559,449.8502 L325.893,452.5521" style="stroke:#383838;stroke-width:1;stroke-dasharray:7,7"/><polygon fill="#383838" points="324.406 457.54 324.459 457.586 325.582 455.954 327.017 454.589 328.35 453.138 329.349 451.4 330.811 450.058 330.799 450.036 329.748 450.471 328.76 451.022 327.814 451.653 326.72 452.008 325.835 452.749 325.997 452.836 325.112 451.654 324.701 450.727 324.347 449.831 323.657 448.754 323.144 447.772 323.167 447.775 323.386 449.725 323.708 451.687 323.981 453.643 324.347 455.612 324.406 457.54" style="stroke:#383838;stroke-width:1"/><path fill="none" d="M268.694,302.241 L268.9097,302.42 L261.6889,309.8179 L255.7323,318.265 L249.3641,326.3704 L241.642,333.3525 L235.7143,341.8234 L228.7764,349.4562 L222.634,357.749" style="stroke:#383838;stroke-width:1;stroke-dasharray:7,7"/><polygon fill="#383838" points="219.216 361.868 219.247 361.931 220.92 360.87 222.775 360.177 224.571 359.365 226.171 358.158 228.042 357.497 228.039 357.471 226.902 357.46 225.777 357.579 224.66 357.788 223.514 357.686 222.409 358.021 222.593 358.038 222.095 356.875 222.134 355.761 222.238 354.654 221.962 353.512 221.886 352.388 221.908 352.394 221.341 354.281 220.875 356.196 220.361 358.098 219.938 360.025 219.216 361.868" style="stroke:#383838;stroke-width:1"/><path fill="none" d="M136.407,302.241 L136.616,302.4277 L143.0812,309.8026 L150.7715,318.2722 L158.0628,326.3852 L164.0423,333.326 L171.7605,341.8205 L178.4998,349.4404 L186.01,357.749" style="stroke:#383838;stroke-width:1;stroke-dasharray:7,7"/><polygon fill="#383838" points="189.691 361.868 189.758 361.889 188.957 359.95 188.547 358.137 188.01 356.283 187.054 354.294 186.677 352.492 186.651 352.49 186.472 353.613 186.423 354.743 186.464 355.879 186.193 356.997 186.36 358.139 186.37 358.324 185.218 357.866 184.097 357.947 182.979 358.093 181.84 357.857 180.712 357.822 180.721 357.842 182.503 358.621 184.328 359.495 186.132 360.322 187.975 361.237 189.691 361.868" style="stroke:#383838;stroke-width:1"/><path fill="none" d="M225.645,398.023 L225.8233,398.2392 L232.9039,403.872 L241.0296,410.7723 L248.815,417.2599 L255.4812,422.3901 L263.6307,429.3192 L270.9452,435.2357 L278.592,441.5551 L286.4699,448.1548 L294.138,454.5001" style="stroke:#383838;stroke-width:1;stroke-dasharray:7,7"/><polygon fill="#383838" points="298.124 457.786 298.187 457.818 297.12 455.962 296.421 454.291 295.603 452.559 294.391 450.631 293.724 448.975 293.698 448.973 293.691 450.088 293.813 451.215 294.026 452.351 293.928 453.458 294.266 454.606 294.284 454.79 293.12 454.505 292.007 454.757 290.901 455.075 289.759 455.011 288.635 455.148 288.641 455.17 290.53 455.666 292.447 456.261 294.35 456.808 296.279 457.447 298.124 457.786" style="stroke:#383838;stroke-width:1"/><path fill="none" d="M194.545,398.241 L194.7846,398.3863 L188.5061,407.1346 L183.6324,416.7347 L178.3012,426.0574 L171.4657,434.4679 L166.6239,444.0874 L161.146,453.3211" style="stroke:#383838;stroke-width:1;stroke-dasharray:7,7"/><polygon fill="#383838" points="158.388 457.868 158.428 457.926 159.927 456.631 161.66 455.673 163.316 454.605 164.722 453.176 166.476 452.248 166.469 452.223 165.343 452.379 164.247 452.662 163.173 453.033 162.025 453.1 160.981 453.593 161.16 453.637 160.508 452.444 160.379 451.38 160.314 450.331 159.877 449.191 159.635 448.099 159.658 448.102 159.375 450.051 159.196 452.014 158.966 453.971 158.831 455.939 158.388 457.868" style="stroke:#383838;stroke-width:1"/><path fill="none" d="M316.75,95.031 L317.0131,95.1275 L312.5652,104.8308 L309.6597,115.1001 L306.2519,125.185 L301.1925,134.6639 L298.322,144.946 L294.2193,154.7759 L291.087,164.962" style="stroke:#383838;stroke-width:1;stroke-dasharray:7,7"/><polygon fill="#383838" points="289.338 169.729 289.388 169.778 290.61 168.219 292.127 166.946 293.547 165.579 294.652 163.907 296.194 162.658 296.183 162.635 295.108 163.005 294.087 163.493 293.104 164.064 291.99 164.351 291.061 165.035 291.228 165.113 290.395 163.92 290.05 162.954 289.765 162.016 289.133 160.917 288.684 159.902 288.707 159.903 288.804 161.867 289.005 163.837 289.156 165.804 289.402 167.776 289.338 169.729" style="stroke:#383838;stroke-width:1"/><path fill="none" d="M329.25,95.031 L329.5131,95.1275 L332.3975,104.8308 L336.8242,115.1001 L340.7487,125.185 L343.0216,134.6639 L347.4834,144.946 L350.713,154.7759 L354.913,164.962" style="stroke:#383838;stroke-width:1;stroke-dasharray:7,7"/><polygon fill="#383838" points="356.662 169.729 356.732 169.734 356.655 167.754 356.988 165.802 357.188 163.842 356.948 161.851 357.316 159.902 357.293 159.891 356.712 160.869 356.25 161.901 355.87 162.972 355.206 163.912 354.939 165.035 355.017 165.203 353.824 164.369 352.858 164.025 351.92 163.74 350.821 163.108 349.806 162.658 349.822 162.674 351.17 164.065 352.591 165.528 353.977 166.956 355.431 168.451 356.662 169.729" style="stroke:#383838;stroke-width:1"/></g></svg>