<svg xmlns="http://www.w3.org/2000/svg" xmlns:xlink="http://www.w3.org/1999/xlink" width="167pt" height="422pt" viewBox="0 0 167 422"><g id="graph1" class="graph" transform="scale(1 1) rotate(0) translate(4 418)"><title>_anonymous_0</title><g id="node1" class="node"><title>initial</title><ellipse cx="74" cy="-405" fill="#000" stroke="#000" rx="9" ry="9"/></g><g id="node3" class="node"><title>s1_1</title><polygon fill="#fff" stroke="#fff" points="123.479 -359.602 24.521 -359.602 12.521 -347.602 12.521 -330.398 24.521 -318.398 123.479 -318.398 135.479 -330.398 135.479 -347.602 123.479 -359.602"/><path fill="#fff" stroke="#fff" d="M24.5211,-359.602C18.5211,-359.602 12.5211,-353.602 12.5211,-347.602"/><path fill="#fff" stroke="#fff" d="M12.5211,-330.398C12.5211,-324.398 18.5211,-318.398 24.5211,-318.398"/><path fill="#fff" stroke="#fff" d="M123.479,-318.398C129.479,-318.398 135.479,-324.398 135.479,-330.398"/><path fill="#fff" stroke="#fff" d="M135.479,-347.602C135.479,-353.602 129.479,-359.602 123.479,-359.602"/><polyline fill="none" stroke="#000" points="123.479 -359.602 24.521 -359.602"/><path fill="none" stroke="#000" d="M24.5211,-359.602C18.5211,-359.602 12.5211,-353.602 12.5211,-347.602"/><polyline fill="none" stroke="#000" points="12.521 -347.602 12.521 -330.398"/><path fill="none" stroke="#000" d="M12.5211,-330.398C12.5211,-324.398 18.5211,-318.398 24.5211,-318.398"/><polyline fill="none" stroke="#000" points="24.521 -318.398 123.479 -318.398"/><path fill="none" stroke="#000" d="M123.479,-318.398C129.479,-318.398 135.479,-324.398 135.479,-330.398"/><polyline fill="none" stroke="#000" points="135.479 -330.398 135.479 -347.602"/><path fill="none" stroke="#000" d="M135.479,-347.602C135.479,-353.602 129.479,-359.602 123.479,-359.602"/><text x="74" y="-343.2" font-family="Times,serif" font-size="14" text-anchor="middle">Program</text><text x="74" y="-326.4" font-family="Times,serif" font-size="14" text-anchor="middle">DoWhileStatement</text></g><g id="edge2" class="edge"><title>initial-&gt;s1_1</title><path fill="none" stroke="#000" d="M74,-395.894C74,-389.274 74,-379.485 74,-369.94"/><polygon fill="#000" stroke="#000" points="77.5 -369.842 74 -359.842 70.5 -369.842 77.5 -369.842"/></g><g id="node2" class="node"><title>final</title><ellipse cx="74" cy="-13" fill="#000" stroke="#000" rx="9" ry="9"/><ellipse cx="74" cy="-13" fill="none" stroke="#000" rx="13" ry="13"/></g><g id="node4" class="node"><title>s1_2</title><polygon fill="#fff" stroke="#fff" points="129.147 -282.401 18.853 -282.401 6.853 -270.401 6.853 -151.599 18.853 -139.599 129.147 -139.599 141.147 -151.599 141.147 -270.401 129.147 -282.401"/><path fill="#fff" stroke="#fff" d="M18.8526,-282.401C12.8526,-282.401 6.85263,-276.401 6.85263,-270.401"/><path fill="#fff" stroke="#fff" d="M6.85263,-151.599C6.85263,-145.599 12.8526,-139.599 18.8526,-139.599"/><path fill="#fff" stroke="#fff" d="M129.147,-139.599C135.147,-139.599 141.147,-145.599 141.147,-151.599"/><path fill="#fff" stroke="#fff" d="M141.147,-270.401C141.147,-276.401 135.147,-282.401 129.147,-282.401"/><polyline fill="none" stroke="#000" points="129.147 -282.401 18.853 -282.401"/><path fill="none" stroke="#000" d="M18.8526,-282.401C12.8526,-282.401 6.85263,-276.401 6.85263,-270.401"/><polyline fill="none" stroke="#000" points="6.853 -270.401 6.853 -151.599"/><path fill="none" stroke="#000" d="M6.85263,-151.599C6.85263,-145.599 12.8526,-139.599 18.8526,-139.599"/><polyline fill="none" stroke="#000" points="18.853 -139.599 129.147 -139.599"/><path fill="none" stroke="#000" d="M129.147,-139.599C135.147,-139.599 141.147,-145.599 141.147,-151.599"/><polyline fill="none" stroke="#000" points="141.147 -151.599 141.147 -270.401"/><path fill="none" stroke="#000" d="M141.147,-270.401C141.147,-276.401 135.147,-282.401 129.147,-282.401"/><text x="74" y="-265.6" font-family="Times,serif" font-size="14" text-anchor="middle">BlockStatement</text><text x="74" y="-248.8" font-family="Times,serif" font-size="14" text-anchor="middle">ExpressionStatement</text><text x="74" y="-232" font-family="Times,serif" font-size="14" text-anchor="middle">CallExpression</text><text x="74" y="-215.2" font-family="Times,serif" font-size="14" text-anchor="middle">Identifier (foo)</text><text x="74" y="-198.4" font-family="Times,serif" font-size="14" text-anchor="middle">ExpressionStatement</text><text x="74" y="-181.6" font-family="Times,serif" font-size="14" text-anchor="middle">CallExpression</text><text x="74" y="-164.8" font-family="Times,serif" font-size="14" text-anchor="middle">Identifier (bar)</text><text x="74" y="-148" font-family="Times,serif" font-size="14" text-anchor="middle">Identifier (a)</text></g><g id="edge3" class="edge"><title>s1_1-&gt;s1_2</title><path fill="none" stroke="#000" d="M74,-318.313C74,-310.915 74,-301.974 74,-292.455"/><polygon fill="#000" stroke="#000" points="77.5 -292.368 74 -282.368 70.5 -292.368 77.5 -292.368"/></g><g id="edge4" class="edge"><title>s1_2-&gt;s1_2</title><path fill="none" stroke="#000" d="M141.337,-232.995C151.84,-229.707 159,-222.375 159,-211 159,-203.357 155.768,-197.54 150.461,-193.548"/><polygon fill="#000" stroke="#000" points="151.849 -190.329 141.337 -189.005 148.729 -196.596 151.849 -190.329"/></g><g id="node5" class="node"><title>s1_3</title><polygon fill="#fff" stroke="#fff" points="136.144 -103.602 11.856 -103.602 -.144 -91.602 -.144 -74.398 11.856 -62.398 136.144 -62.398 148.144 -74.398 148.144 -91.602 136.144 -103.602"/><path fill="#fff" stroke="#fff" d="M11.8558,-103.602C5.85579,-103.602 -0.144212,-97.6019 -0.144212,-91.6019"/><path fill="#fff" stroke="#fff" d="M-0.144212,-74.3981C-0.144212,-68.3981 5.85579,-62.3981 11.8558,-62.3981"/><path fill="#fff" stroke="#fff" d="M136.144,-62.3981C142.144,-62.3981 148.144,-68.3981 148.144,-74.3981"/><path fill="#fff" stroke="#fff" d="M148.144,-91.6019C148.144,-97.6019 142.144,-103.602 136.144,-103.602"/><polyline fill="none" stroke="#000" points="136.144 -103.602 11.856 -103.602"/><path fill="none" stroke="#000" d="M11.8558,-103.602C5.85579,-103.602 -0.144212,-97.6019 -0.144212,-91.6019"/><polyline fill="none" stroke="#000" points="-.144 -91.602 -.144 -74.398"/><path fill="none" stroke="#000" d="M-0.144212,-74.3981C-0.144212,-68.3981 5.85579,-62.3981 11.8558,-62.3981"/><polyline fill="none" stroke="#000" points="11.856 -62.398 136.144 -62.398"/><path fill="none" stroke="#000" d="M136.144,-62.3981C142.144,-62.3981 148.144,-68.3981 148.144,-74.3981"/><polyline fill="none" stroke="#000" points="148.144 -74.398 148.144 -91.602"/><path fill="none" stroke="#000" d="M148.144,-91.6019C148.144,-97.6019 142.144,-103.602 136.144,-103.602"/><text x="74" y="-87.2" font-family="Times,serif" font-size="14" text-anchor="middle">DoWhileStatement:exit</text><text x="74" y="-70.4" font-family="Times,serif" font-size="14" text-anchor="middle">Program:exit</text></g><g id="edge5" class="edge"><title>s1_2-&gt;s1_3</title><path fill="none" stroke="#000" d="M74,-139.632C74,-130.564 74,-121.701 74,-113.811"/><polygon fill="#000" stroke="#000" points="77.5 -113.726 74 -103.726 70.5 -113.726 77.5 -113.726"/></g><g id="edge6" class="edge"><title>s1_3-&gt;final</title><path fill="none" stroke="#000" d="M74,-62.3316C74,-54.2587 74,-44.8663 74,-36.5198"/><polygon fill="#000" stroke="#000" points="77.5 -36.349 74 -26.349 70.5 -36.349 77.5 -36.349"/></g></g></svg>