<svg xmlns="http://www.w3.org/2000/svg" xmlns:xlink="http://www.w3.org/1999/xlink" width="350pt" height="646pt" viewBox="0 0 350 646"><g id="graph1" class="graph" transform="scale(1 1) rotate(0) translate(4 642)"><title>_anonymous_0</title><g id="node1" class="node"><title>initial</title><ellipse cx="174" cy="-629" fill="#000" stroke="#000" rx="9" ry="9"/></g><g id="node3" class="node"><title>s1_1</title><polygon fill="#fff" stroke="#fff" points="226.617 -583.3 121.383 -583.3 109.383 -571.3 109.383 -486.7 121.383 -474.7 226.617 -474.7 238.617 -486.7 238.617 -571.3 226.617 -583.3"/><path fill="#fff" stroke="#fff" d="M121.383,-583.3C115.383,-583.3 109.383,-577.3 109.383,-571.3"/><path fill="#fff" stroke="#fff" d="M109.383,-486.7C109.383,-480.7 115.383,-474.7 121.383,-474.7"/><path fill="#fff" stroke="#fff" d="M226.617,-474.7C232.617,-474.7 238.617,-480.7 238.617,-486.7"/><path fill="#fff" stroke="#fff" d="M238.617,-571.3C238.617,-577.3 232.617,-583.3 226.617,-583.3"/><polyline fill="none" stroke="#000" points="226.617 -583.3 121.383 -583.3"/><path fill="none" stroke="#000" d="M121.383,-583.3C115.383,-583.3 109.383,-577.3 109.383,-571.3"/><polyline fill="none" stroke="#000" points="109.383 -571.3 109.383 -486.7"/><path fill="none" stroke="#000" d="M109.383,-486.7C109.383,-480.7 115.383,-474.7 121.383,-474.7"/><polyline fill="none" stroke="#000" points="121.383 -474.7 226.617 -474.7"/><path fill="none" stroke="#000" d="M226.617,-474.7C232.617,-474.7 238.617,-480.7 238.617,-486.7"/><polyline fill="none" stroke="#000" points="238.617 -486.7 238.617 -571.3"/><path fill="none" stroke="#000" d="M238.617,-571.3C238.617,-577.3 232.617,-583.3 226.617,-583.3"/><text x="174" y="-566.8" font-family="Times,serif" font-size="14" text-anchor="middle">Program</text><text x="174" y="-550" font-family="Times,serif" font-size="14" text-anchor="middle">ForStatement</text><text x="174" y="-533.2" font-family="Times,serif" font-size="14" text-anchor="middle">VariableDeclaration</text><text x="174" y="-516.4" font-family="Times,serif" font-size="14" text-anchor="middle">VariableDeclarator</text><text x="174" y="-499.6" font-family="Times,serif" font-size="14" text-anchor="middle">Identifier (i)</text><text x="174" y="-482.8" font-family="Times,serif" font-size="14" text-anchor="middle">Literal (0)</text></g><g id="edge2" class="edge"><title>initial-&gt;s1_1</title><path fill="none" stroke="#000" d="M174,-619.98C174,-613.675 174,-604.238 174,-593.813"/><polygon fill="#000" stroke="#000" points="177.5 -593.586 174 -583.586 170.5 -593.586 177.5 -593.586"/></g><g id="node2" class="node"><title>final</title><ellipse cx="58" cy="-13" fill="#000" stroke="#000" rx="9" ry="9"/><ellipse cx="58" cy="-13" fill="none" stroke="#000" rx="13" ry="13"/></g><g id="node4" class="node"><title>s1_2</title><polygon fill="#fff" stroke="#fff" points="220.233 -438.401 127.767 -438.401 115.767 -426.401 115.767 -391.599 127.767 -379.599 220.233 -379.599 232.233 -391.599 232.233 -426.401 220.233 -438.401"/><path fill="#fff" stroke="#fff" d="M127.767,-438.401C121.767,-438.401 115.767,-432.401 115.767,-426.401"/><path fill="#fff" stroke="#fff" d="M115.767,-391.599C115.767,-385.599 121.767,-379.599 127.767,-379.599"/><path fill="#fff" stroke="#fff" d="M220.233,-379.599C226.233,-379.599 232.233,-385.599 232.233,-391.599"/><path fill="#fff" stroke="#fff" d="M232.233,-426.401C232.233,-432.401 226.233,-438.401 220.233,-438.401"/><polyline fill="none" stroke="#000" points="220.233 -438.401 127.767 -438.401"/><path fill="none" stroke="#000" d="M127.767,-438.401C121.767,-438.401 115.767,-432.401 115.767,-426.401"/><polyline fill="none" stroke="#000" points="115.767 -426.401 115.767 -391.599"/><path fill="none" stroke="#000" d="M115.767,-391.599C115.767,-385.599 121.767,-379.599 127.767,-379.599"/><polyline fill="none" stroke="#000" points="127.767 -379.599 220.233 -379.599"/><path fill="none" stroke="#000" d="M220.233,-379.599C226.233,-379.599 232.233,-385.599 232.233,-391.599"/><polyline fill="none" stroke="#000" points="232.233 -391.599 232.233 -426.401"/><path fill="none" stroke="#000" d="M232.233,-426.401C232.233,-432.401 226.233,-438.401 220.233,-438.401"/><text x="174" y="-421.6" font-family="Times,serif" font-size="14" text-anchor="middle">BinaryExpression</text><text x="174" y="-404.8" font-family="Times,serif" font-size="14" text-anchor="middle">Identifier (i)</text><text x="174" y="-388" font-family="Times,serif" font-size="14" text-anchor="middle">Literal (10)</text></g><g id="edge3" class="edge"><title>s1_1-&gt;s1_2</title><path fill="none" stroke="#000" d="M174,-474.524C174,-465.777 174,-456.867 174,-448.572"/><polygon fill="#000" stroke="#000" points="177.5 -448.452 174 -438.452 170.5 -448.452 177.5 -448.452"/></g><g id="node5" class="node"><title>s1_3</title><polygon fill="#fff" stroke="#fff" points="229.147 -343.3 118.853 -343.3 106.853 -331.3 106.853 -246.7 118.853 -234.7 229.147 -234.7 241.147 -246.7 241.147 -331.3 229.147 -343.3"/><path fill="#fff" stroke="#fff" d="M118.853,-343.3C112.853,-343.3 106.853,-337.3 106.853,-331.3"/><path fill="#fff" stroke="#fff" d="M106.853,-246.7C106.853,-240.7 112.853,-234.7 118.853,-234.7"/><path fill="#fff" stroke="#fff" d="M229.147,-234.7C235.147,-234.7 241.147,-240.7 241.147,-246.7"/><path fill="#fff" stroke="#fff" d="M241.147,-331.3C241.147,-337.3 235.147,-343.3 229.147,-343.3"/><polyline fill="none" stroke="#000" points="229.147 -343.3 118.853 -343.3"/><path fill="none" stroke="#000" d="M118.853,-343.3C112.853,-343.3 106.853,-337.3 106.853,-331.3"/><polyline fill="none" stroke="#000" points="106.853 -331.3 106.853 -246.7"/><path fill="none" stroke="#000" d="M106.853,-246.7C106.853,-240.7 112.853,-234.7 118.853,-234.7"/><polyline fill="none" stroke="#000" points="118.853 -234.7 229.147 -234.7"/><path fill="none" stroke="#000" d="M229.147,-234.7C235.147,-234.7 241.147,-240.7 241.147,-246.7"/><polyline fill="none" stroke="#000" points="241.147 -246.7 241.147 -331.3"/><path fill="none" stroke="#000" d="M241.147,-331.3C241.147,-337.3 235.147,-343.3 229.147,-343.3"/><text x="174" y="-326.8" font-family="Times,serif" font-size="14" text-anchor="middle">BlockStatement</text><text x="174" y="-310" font-family="Times,serif" font-size="14" text-anchor="middle">ExpressionStatement</text><text x="174" y="-293.2" font-family="Times,serif" font-size="14" text-anchor="middle">CallExpression</text><text x="174" y="-276.4" font-family="Times,serif" font-size="14" text-anchor="middle">Identifier (foo)</text><text x="174" y="-259.6" font-family="Times,serif" font-size="14" text-anchor="middle">IfStatement</text><text x="174" y="-242.8" font-family="Times,serif" font-size="14" text-anchor="middle">Identifier (b)</text></g><g id="edge4" class="edge"><title>s1_2-&gt;s1_3</title><path fill="none" stroke="#000" d="M174,-379.736C174,-371.725 174,-362.664 174,-353.458"/><polygon fill="#000" stroke="#000" points="177.5 -353.454 174 -343.454 170.5 -353.454 177.5 -353.454"/></g><g id="node9" class="node"><title>s1_8</title><polygon fill="#fff" stroke="#fff" points="104.239 -103.602 11.761 -103.602 -.239 -91.602 -.239 -74.398 11.761 -62.398 104.239 -62.398 116.239 -74.398 116.239 -91.602 104.239 -103.602"/><path fill="#fff" stroke="#fff" d="M11.761,-103.602C5.76098,-103.602 -0.239018,-97.6019 -0.239018,-91.6019"/><path fill="#fff" stroke="#fff" d="M-0.239018,-74.3981C-0.239018,-68.3981 5.76098,-62.3981 11.761,-62.3981"/><path fill="#fff" stroke="#fff" d="M104.239,-62.3981C110.239,-62.3981 116.239,-68.3981 116.239,-74.3981"/><path fill="#fff" stroke="#fff" d="M116.239,-91.6019C116.239,-97.6019 110.239,-103.602 104.239,-103.602"/><polyline fill="none" stroke="#000" points="104.239 -103.602 11.761 -103.602"/><path fill="none" stroke="#000" d="M11.761,-103.602C5.76098,-103.602 -0.239018,-97.6019 -0.239018,-91.6019"/><polyline fill="none" stroke="#000" points="-.239 -91.602 -.239 -74.398"/><path fill="none" stroke="#000" d="M-0.239018,-74.3981C-0.239018,-68.3981 5.76098,-62.3981 11.761,-62.3981"/><polyline fill="none" stroke="#000" points="11.761 -62.398 104.239 -62.398"/><path fill="none" stroke="#000" d="M104.239,-62.3981C110.239,-62.3981 116.239,-68.3981 116.239,-74.3981"/><polyline fill="none" stroke="#000" points="116.239 -74.398 116.239 -91.602"/><path fill="none" stroke="#000" d="M116.239,-91.6019C116.239,-97.6019 110.239,-103.602 104.239,-103.602"/><text x="58" y="-87.2" font-family="Times,serif" font-size="14" text-anchor="middle">ForStatement:exit</text><text x="58" y="-70.4" font-family="Times,serif" font-size="14" text-anchor="middle">Program:exit</text></g><g id="edge9" class="edge"><title>s1_2-&gt;s1_8</title><path fill="none" stroke="#000" d="M133.184,-379.539C120.713,-369.392 107.737,-357.181 98,-344 56.1121,-287.297 50.0603,-267.081 36,-198 30.8588,-172.74 31.2034,-165.328 36,-140 37.7044,-131.001 40.8223,-121.596 44.1855,-113.12"/><polygon fill="#000" stroke="#000" points="47.508 -114.249 48.176 -103.676 41.06 -111.525 47.508 -114.249"/></g><g id="node6" class="node"><title>s1_5</title><polygon fill="#fff" stroke="#fff" points="138.572 -189.602 57.428 -189.602 45.428 -177.602 45.428 -160.398 57.428 -148.398 138.572 -148.398 150.572 -160.398 150.572 -177.602 138.572 -189.602"/><path fill="#fff" stroke="#fff" d="M57.4276,-189.602C51.4276,-189.602 45.4276,-183.602 45.4276,-177.602"/><path fill="#fff" stroke="#fff" d="M45.4276,-160.398C45.4276,-154.398 51.4276,-148.398 57.4276,-148.398"/><path fill="#fff" stroke="#fff" d="M138.572,-148.398C144.572,-148.398 150.572,-154.398 150.572,-160.398"/><path fill="#fff" stroke="#fff" d="M150.572,-177.602C150.572,-183.602 144.572,-189.602 138.572,-189.602"/><polyline fill="none" stroke="#000" points="138.572 -189.602 57.428 -189.602"/><path fill="none" stroke="#000" d="M57.4276,-189.602C51.4276,-189.602 45.4276,-183.602 45.4276,-177.602"/><polyline fill="none" stroke="#000" points="45.428 -177.602 45.428 -160.398"/><path fill="none" stroke="#000" d="M45.4276,-160.398C45.4276,-154.398 51.4276,-148.398 57.4276,-148.398"/><polyline fill="none" stroke="#000" points="57.428 -148.398 138.572 -148.398"/><path fill="none" stroke="#000" d="M138.572,-148.398C144.572,-148.398 150.572,-154.398 150.572,-160.398"/><polyline fill="none" stroke="#000" points="150.572 -160.398 150.572 -177.602"/><path fill="none" stroke="#000" d="M150.572,-177.602C150.572,-183.602 144.572,-189.602 138.572,-189.602"/><text x="98" y="-173.2" font-family="Times,serif" font-size="14" text-anchor="middle">BlockStatement</text><text x="98" y="-156.4" font-family="Times,serif" font-size="14" text-anchor="middle">BreakStatement</text></g><g id="edge5" class="edge"><title>s1_3-&gt;s1_5</title><path fill="none" stroke="#000" d="M139.558,-234.524C131.519,-222.042 123.266,-209.228 116.254,-198.342"/><polygon fill="#000" stroke="#000" points="119.046 -196.213 110.689 -189.701 113.161 -200.003 119.046 -196.213"/></g><g id="node7" class="node"><title>s1_7</title><polygon fill="#fff" stroke="#fff" points="291.147 -198.401 180.853 -198.401 168.853 -186.401 168.853 -151.599 180.853 -139.599 291.147 -139.599 303.147 -151.599 303.147 -186.401 291.147 -198.401"/><path fill="#fff" stroke="#fff" d="M180.853,-198.401C174.853,-198.401 168.853,-192.401 168.853,-186.401"/><path fill="#fff" stroke="#fff" d="M168.853,-151.599C168.853,-145.599 174.853,-139.599 180.853,-139.599"/><path fill="#fff" stroke="#fff" d="M291.147,-139.599C297.147,-139.599 303.147,-145.599 303.147,-151.599"/><path fill="#fff" stroke="#fff" d="M303.147,-186.401C303.147,-192.401 297.147,-198.401 291.147,-198.401"/><polyline fill="none" stroke="#000" points="291.147 -198.401 180.853 -198.401"/><path fill="none" stroke="#000" d="M180.853,-198.401C174.853,-198.401 168.853,-192.401 168.853,-186.401"/><polyline fill="none" stroke="#000" points="168.853 -186.401 168.853 -151.599"/><path fill="none" stroke="#000" d="M168.853,-151.599C168.853,-145.599 174.853,-139.599 180.853,-139.599"/><polyline fill="none" stroke="#000" points="180.853 -139.599 291.147 -139.599"/><path fill="none" stroke="#000" d="M291.147,-139.599C297.147,-139.599 303.147,-145.599 303.147,-151.599"/><polyline fill="none" stroke="#000" points="303.147 -151.599 303.147 -186.401"/><path fill="none" stroke="#000" d="M303.147,-186.401C303.147,-192.401 297.147,-198.401 291.147,-198.401"/><text x="236" y="-181.6" font-family="Times,serif" font-size="14" text-anchor="middle">ExpressionStatement</text><text x="236" y="-164.8" font-family="Times,serif" font-size="14" text-anchor="middle">CallExpression</text><text x="236" y="-148" font-family="Times,serif" font-size="14" text-anchor="middle">Identifier (bar)</text></g><g id="edge11" class="edge"><title>s1_3-&gt;s1_7</title><path fill="none" stroke="#000" d="M202.098,-234.524C206.898,-225.389 211.791,-216.075 216.313,-207.47"/><polygon fill="#000" stroke="#000" points="219.498 -208.932 221.051 -198.452 213.301 -205.676 219.498 -208.932"/></g><g id="edge13" class="edge"><title>s1_5-&gt;s1_8</title><path fill="none" stroke="#000" d="M88.5206,-148.093C83.5391,-137.632 77.3402,-124.615 71.833,-113.049"/><polygon fill="#000" stroke="#000" points="74.871 -111.288 67.411 -103.764 68.551 -114.297 74.871 -111.288"/></g><g id="node8" class="node"><title>s1_4</title><polygon fill="#fff" stroke="#fff" points="329.977 -103.602 236.023 -103.602 224.023 -91.602 224.023 -74.398 236.023 -62.398 329.977 -62.398 341.977 -74.398 341.977 -91.602 329.977 -103.602"/><path fill="#fff" stroke="#fff" d="M236.023,-103.602C230.023,-103.602 224.023,-97.6019 224.023,-91.6019"/><path fill="#fff" stroke="#fff" d="M224.023,-74.3981C224.023,-68.3981 230.023,-62.3981 236.023,-62.3981"/><path fill="#fff" stroke="#fff" d="M329.977,-62.3981C335.977,-62.3981 341.977,-68.3981 341.977,-74.3981"/><path fill="#fff" stroke="#fff" d="M341.977,-91.6019C341.977,-97.6019 335.977,-103.602 329.977,-103.602"/><polyline fill="none" stroke="#000" points="329.977 -103.602 236.023 -103.602"/><path fill="none" stroke="#000" d="M236.023,-103.602C230.023,-103.602 224.023,-97.6019 224.023,-91.6019"/><polyline fill="none" stroke="#000" points="224.023 -91.602 224.023 -74.398"/><path fill="none" stroke="#000" d="M224.023,-74.3981C224.023,-68.3981 230.023,-62.3981 236.023,-62.3981"/><polyline fill="none" stroke="#000" points="236.023 -62.398 329.977 -62.398"/><path fill="none" stroke="#000" d="M329.977,-62.3981C335.977,-62.3981 341.977,-68.3981 341.977,-74.3981"/><polyline fill="none" stroke="#000" points="341.977 -74.398 341.977 -91.602"/><path fill="none" stroke="#000" d="M341.977,-91.6019C341.977,-97.6019 335.977,-103.602 329.977,-103.602"/><text x="283" y="-87.2" font-family="Times,serif" font-size="14" text-anchor="middle">UpdateExpression</text><text x="283" y="-70.4" font-family="Times,serif" font-size="14" text-anchor="middle">Identifier (i)</text></g><g id="edge7" class="edge"><title>s1_7-&gt;s1_4</title><path fill="none" stroke="#000" d="M251.912,-139.561C256.814,-130.801 262.209,-121.158 267.109,-112.4"/><polygon fill="#000" stroke="#000" points="270.167 -114.104 271.995 -103.668 264.058 -110.686 270.167 -114.104"/></g><g id="edge8" class="edge"><title>s1_4-&gt;s1_2</title><path fill="none" stroke="#000" d="M296.225,-103.814C302.324,-114.132 308.891,-127.235 312,-140 318.1,-165.046 317.141,-172.74 312,-198 297.94,-267.081 291.888,-287.297 250,-344 242.317,-354.4 232.617,-364.197 222.74,-372.853"/><polygon fill="#000" stroke="#000" points="220.202 -370.415 214.816 -379.539 224.716 -375.765 220.202 -370.415"/></g><g id="edge14" class="edge"><title>s1_8-&gt;final</title><path fill="none" stroke="#000" d="M58,-62.3316C58,-54.2587 58,-44.8663 58,-36.5198"/><polygon fill="#000" stroke="#000" points="61.5 -36.349 58 -26.349 54.5 -36.349 61.5 -36.349"/></g></g></svg>