<svg xmlns="http://www.w3.org/2000/svg" xmlns:xlink="http://www.w3.org/1999/xlink" width="371pt" height="562pt" viewBox="0 0 371 562"><g id="graph1" class="graph" transform="scale(1 1) rotate(0) translate(4 558)"><title>_anonymous_0</title><g id="node1" class="node"><title>initial</title><ellipse cx="114" cy="-545" fill="#000" stroke="#000" rx="9" ry="9"/></g><g id="node3" class="node"><title>s1_1</title><polygon fill="#fff" stroke="#fff" points="145.339 -500.401 82.661 -500.401 70.661 -488.401 70.661 -453.599 82.661 -441.599 145.339 -441.599 157.339 -453.599 157.339 -488.401 145.339 -500.401"/><path fill="#fff" stroke="#fff" d="M82.6614,-500.401C76.6614,-500.401 70.6614,-494.401 70.6614,-488.401"/><path fill="#fff" stroke="#fff" d="M70.6614,-453.599C70.6614,-447.599 76.6614,-441.599 82.6614,-441.599"/><path fill="#fff" stroke="#fff" d="M145.339,-441.599C151.339,-441.599 157.339,-447.599 157.339,-453.599"/><path fill="#fff" stroke="#fff" d="M157.339,-488.401C157.339,-494.401 151.339,-500.401 145.339,-500.401"/><polyline fill="none" stroke="#000" points="145.339 -500.401 82.661 -500.401"/><path fill="none" stroke="#000" d="M82.6614,-500.401C76.6614,-500.401 70.6614,-494.401 70.6614,-488.401"/><polyline fill="none" stroke="#000" points="70.661 -488.401 70.661 -453.599"/><path fill="none" stroke="#000" d="M70.6614,-453.599C70.6614,-447.599 76.6614,-441.599 82.6614,-441.599"/><polyline fill="none" stroke="#000" points="82.661 -441.599 145.339 -441.599"/><path fill="none" stroke="#000" d="M145.339,-441.599C151.339,-441.599 157.339,-447.599 157.339,-453.599"/><polyline fill="none" stroke="#000" points="157.339 -453.599 157.339 -488.401"/><path fill="none" stroke="#000" d="M157.339,-488.401C157.339,-494.401 151.339,-500.401 145.339,-500.401"/><text x="114" y="-483.6" font-family="Times,serif" font-size="14" text-anchor="middle">Program</text><text x="114" y="-466.8" font-family="Times,serif" font-size="14" text-anchor="middle">IfStatement</text><text x="114" y="-450" font-family="Times,serif" font-size="14" text-anchor="middle">Identifier (a)</text></g><g id="edge2" class="edge"><title>initial-&gt;s1_1</title><path fill="none" stroke="#000" d="M114,-535.741C114,-529.393 114,-520.126 114,-510.615"/><polygon fill="#000" stroke="#000" points="117.5 -510.324 114 -500.324 110.5 -510.324 117.5 -510.324"/></g><g id="node2" class="node"><title>final</title><ellipse cx="181" cy="-13" fill="#000" stroke="#000" rx="9" ry="9"/><ellipse cx="181" cy="-13" fill="none" stroke="#000" rx="13" ry="13"/></g><g id="node4" class="node"><title>s1_2</title><polygon fill="#fff" stroke="#fff" points="122.147 -215.7 11.853 -215.7 -.147 -203.7 -.147 -152.3 11.853 -140.3 122.147 -140.3 134.147 -152.3 134.147 -203.7 122.147 -215.7"/><path fill="#fff" stroke="#fff" d="M11.8526,-215.7C5.85263,-215.7 -0.147372,-209.7 -0.147372,-203.7"/><path fill="#fff" stroke="#fff" d="M-0.147372,-152.3C-0.147372,-146.3 5.85263,-140.3 11.8526,-140.3"/><path fill="#fff" stroke="#fff" d="M122.147,-140.3C128.147,-140.3 134.147,-146.3 134.147,-152.3"/><path fill="#fff" stroke="#fff" d="M134.147,-203.7C134.147,-209.7 128.147,-215.7 122.147,-215.7"/><polyline fill="none" stroke="#000" points="122.147 -215.7 11.853 -215.7"/><path fill="none" stroke="#000" d="M11.8526,-215.7C5.85263,-215.7 -0.147372,-209.7 -0.147372,-203.7"/><polyline fill="none" stroke="#000" points="-.147 -203.7 -.147 -152.3"/><path fill="none" stroke="#000" d="M-0.147372,-152.3C-0.147372,-146.3 5.85263,-140.3 11.8526,-140.3"/><polyline fill="none" stroke="#000" points="11.853 -140.3 122.147 -140.3"/><path fill="none" stroke="#000" d="M122.147,-140.3C128.147,-140.3 134.147,-146.3 134.147,-152.3"/><polyline fill="none" stroke="#000" points="134.147 -152.3 134.147 -203.7"/><path fill="none" stroke="#000" d="M134.147,-203.7C134.147,-209.7 128.147,-215.7 122.147,-215.7"/><text x="67" y="-199" font-family="Times,serif" font-size="14" text-anchor="middle">BlockStatement</text><text x="67" y="-182.2" font-family="Times,serif" font-size="14" text-anchor="middle">ExpressionStatement</text><text x="67" y="-165.4" font-family="Times,serif" font-size="14" text-anchor="middle">CallExpression</text><text x="67" y="-148.6" font-family="Times,serif" font-size="14" text-anchor="middle">Identifier (foo)</text></g><g id="edge3" class="edge"><title>s1_1-&gt;s1_2</title><path fill="none" stroke="#000" d="M107.798,-441.544C101.706,-412.948 92.4152,-367.562 86,-328 80.4738,-293.921 75.5819,-255.241 72.1462,-225.832"/><polygon fill="#000" stroke="#000" points="75.617 -225.373 70.993 -215.84 68.663 -226.175 75.617 -225.373"/></g><g id="node6" class="node"><title>s1_3</title><polygon fill="#fff" stroke="#fff" points="193.429 -405.602 130.571 -405.602 118.571 -393.602 118.571 -376.398 130.571 -364.398 193.429 -364.398 205.429 -376.398 205.429 -393.602 193.429 -405.602"/><path fill="#fff" stroke="#fff" d="M130.571,-405.602C124.571,-405.602 118.571,-399.602 118.571,-393.602"/><path fill="#fff" stroke="#fff" d="M118.571,-376.398C118.571,-370.398 124.571,-364.398 130.571,-364.398"/><path fill="#fff" stroke="#fff" d="M193.429,-364.398C199.429,-364.398 205.429,-370.398 205.429,-376.398"/><path fill="#fff" stroke="#fff" d="M205.429,-393.602C205.429,-399.602 199.429,-405.602 193.429,-405.602"/><polyline fill="none" stroke="#000" points="193.429 -405.602 130.571 -405.602"/><path fill="none" stroke="#000" d="M130.571,-405.602C124.571,-405.602 118.571,-399.602 118.571,-393.602"/><polyline fill="none" stroke="#000" points="118.571 -393.602 118.571 -376.398"/><path fill="none" stroke="#000" d="M118.571,-376.398C118.571,-370.398 124.571,-364.398 130.571,-364.398"/><polyline fill="none" stroke="#000" points="130.571 -364.398 193.429 -364.398"/><path fill="none" stroke="#000" d="M193.429,-364.398C199.429,-364.398 205.429,-370.398 205.429,-376.398"/><polyline fill="none" stroke="#000" points="205.429 -376.398 205.429 -393.602"/><path fill="none" stroke="#000" d="M205.429,-393.602C205.429,-399.602 199.429,-405.602 193.429,-405.602"/><text x="162" y="-389.2" font-family="Times,serif" font-size="14" text-anchor="middle">IfStatement</text><text x="162" y="-372.4" font-family="Times,serif" font-size="14" text-anchor="middle">Identifier (b)</text></g><g id="edge6" class="edge"><title>s1_1-&gt;s1_3</title><path fill="none" stroke="#000" d="M130.251,-441.561C135.257,-432.801 140.767,-423.158 145.771,-414.4"/><polygon fill="#000" stroke="#000" points="148.839 -416.087 150.761 -405.668 142.761 -412.614 148.839 -416.087"/></g><g id="node5" class="node"><title>s1_9</title><polygon fill="#fff" stroke="#fff" points="222.147 -103.602 139.853 -103.602 127.853 -91.602 127.853 -74.398 139.853 -62.398 222.147 -62.398 234.147 -74.398 234.147 -91.602 222.147 -103.602"/><path fill="#fff" stroke="#fff" d="M139.853,-103.602C133.853,-103.602 127.853,-97.6019 127.853,-91.6019"/><path fill="#fff" stroke="#fff" d="M127.853,-74.3981C127.853,-68.3981 133.853,-62.3981 139.853,-62.3981"/><path fill="#fff" stroke="#fff" d="M222.147,-62.3981C228.147,-62.3981 234.147,-68.3981 234.147,-74.3981"/><path fill="#fff" stroke="#fff" d="M234.147,-91.6019C234.147,-97.6019 228.147,-103.602 222.147,-103.602"/><polyline fill="none" stroke="#000" points="222.147 -103.602 139.853 -103.602"/><path fill="none" stroke="#000" d="M139.853,-103.602C133.853,-103.602 127.853,-97.6019 127.853,-91.6019"/><polyline fill="none" stroke="#000" points="127.853 -91.602 127.853 -74.398"/><path fill="none" stroke="#000" d="M127.853,-74.3981C127.853,-68.3981 133.853,-62.3981 139.853,-62.3981"/><polyline fill="none" stroke="#000" points="139.853 -62.398 222.147 -62.398"/><path fill="none" stroke="#000" d="M222.147,-62.3981C228.147,-62.3981 234.147,-68.3981 234.147,-74.3981"/><polyline fill="none" stroke="#000" points="234.147 -74.398 234.147 -91.602"/><path fill="none" stroke="#000" d="M234.147,-91.6019C234.147,-97.6019 228.147,-103.602 222.147,-103.602"/><text x="181" y="-87.2" font-family="Times,serif" font-size="14" text-anchor="middle">IfStatement:exit</text><text x="181" y="-70.4" font-family="Times,serif" font-size="14" text-anchor="middle">Program:exit</text></g><g id="edge4" class="edge"><title>s1_2-&gt;s1_9</title><path fill="none" stroke="#000" d="M112.056,-140.244C124.376,-130.194 137.475,-119.507 148.909,-110.179"/><polygon fill="#000" stroke="#000" points="151.37 -112.689 156.906 -103.655 146.945 -107.265 151.37 -112.689"/></g><g id="edge15" class="edge"><title>s1_9-&gt;final</title><path fill="none" stroke="#000" d="M181,-62.3316C181,-54.2587 181,-44.8663 181,-36.5198"/><polygon fill="#000" stroke="#000" points="184.5 -36.349 181 -26.349 177.5 -36.349 184.5 -36.349"/></g><g id="node7" class="node"><title>s1_4</title><polygon fill="#fff" stroke="#fff" points="217.147 -327.7 106.853 -327.7 94.853 -315.7 94.853 -264.3 106.853 -252.3 217.147 -252.3 229.147 -264.3 229.147 -315.7 217.147 -327.7"/><path fill="#fff" stroke="#fff" d="M106.853,-327.7C100.853,-327.7 94.8526,-321.7 94.8526,-315.7"/><path fill="#fff" stroke="#fff" d="M94.8526,-264.3C94.8526,-258.3 100.853,-252.3 106.853,-252.3"/><path fill="#fff" stroke="#fff" d="M217.147,-252.3C223.147,-252.3 229.147,-258.3 229.147,-264.3"/><path fill="#fff" stroke="#fff" d="M229.147,-315.7C229.147,-321.7 223.147,-327.7 217.147,-327.7"/><polyline fill="none" stroke="#000" points="217.147 -327.7 106.853 -327.7"/><path fill="none" stroke="#000" d="M106.853,-327.7C100.853,-327.7 94.8526,-321.7 94.8526,-315.7"/><polyline fill="none" stroke="#000" points="94.853 -315.7 94.853 -264.3"/><path fill="none" stroke="#000" d="M94.8526,-264.3C94.8526,-258.3 100.853,-252.3 106.853,-252.3"/><polyline fill="none" stroke="#000" points="106.853 -252.3 217.147 -252.3"/><path fill="none" stroke="#000" d="M217.147,-252.3C223.147,-252.3 229.147,-258.3 229.147,-264.3"/><polyline fill="none" stroke="#000" points="229.147 -264.3 229.147 -315.7"/><path fill="none" stroke="#000" d="M229.147,-315.7C229.147,-321.7 223.147,-327.7 217.147,-327.7"/><text x="162" y="-311" font-family="Times,serif" font-size="14" text-anchor="middle">BlockStatement</text><text x="162" y="-294.2" font-family="Times,serif" font-size="14" text-anchor="middle">ExpressionStatement</text><text x="162" y="-277.4" font-family="Times,serif" font-size="14" text-anchor="middle">CallExpression</text><text x="162" y="-260.6" font-family="Times,serif" font-size="14" text-anchor="middle">Identifier (bar)</text></g><g id="edge7" class="edge"><title>s1_3-&gt;s1_4</title><path fill="none" stroke="#000" d="M162,-364.277C162,-356.524 162,-347.265 162,-337.98"/><polygon fill="#000" stroke="#000" points="165.5 -337.965 162 -327.965 158.5 -337.965 165.5 -337.965"/></g><g id="node8" class="node"><title>s1_5</title><polygon fill="#fff" stroke="#fff" points="322.339 -310.602 259.661 -310.602 247.661 -298.602 247.661 -281.398 259.661 -269.398 322.339 -269.398 334.339 -281.398 334.339 -298.602 322.339 -310.602"/><path fill="#fff" stroke="#fff" d="M259.661,-310.602C253.661,-310.602 247.661,-304.602 247.661,-298.602"/><path fill="#fff" stroke="#fff" d="M247.661,-281.398C247.661,-275.398 253.661,-269.398 259.661,-269.398"/><path fill="#fff" stroke="#fff" d="M322.339,-269.398C328.339,-269.398 334.339,-275.398 334.339,-281.398"/><path fill="#fff" stroke="#fff" d="M334.339,-298.602C334.339,-304.602 328.339,-310.602 322.339,-310.602"/><polyline fill="none" stroke="#000" points="322.339 -310.602 259.661 -310.602"/><path fill="none" stroke="#000" d="M259.661,-310.602C253.661,-310.602 247.661,-304.602 247.661,-298.602"/><polyline fill="none" stroke="#000" points="247.661 -298.602 247.661 -281.398"/><path fill="none" stroke="#000" d="M247.661,-281.398C247.661,-275.398 253.661,-269.398 259.661,-269.398"/><polyline fill="none" stroke="#000" points="259.661 -269.398 322.339 -269.398"/><path fill="none" stroke="#000" d="M322.339,-269.398C328.339,-269.398 334.339,-275.398 334.339,-281.398"/><polyline fill="none" stroke="#000" points="334.339 -281.398 334.339 -298.602"/><path fill="none" stroke="#000" d="M334.339,-298.602C334.339,-304.602 328.339,-310.602 322.339,-310.602"/><text x="291" y="-294.2" font-family="Times,serif" font-size="14" text-anchor="middle">IfStatement</text><text x="291" y="-277.4" font-family="Times,serif" font-size="14" text-anchor="middle">Identifier (c)</text></g><g id="edge10" class="edge"><title>s1_3-&gt;s1_5</title><path fill="none" stroke="#000" d="M189.358,-364.277C208.598,-350.406 234.528,-331.712 255.382,-316.678"/><polygon fill="#000" stroke="#000" points="257.617 -319.382 263.682 -310.694 253.523 -313.703 257.617 -319.382"/></g><g id="edge8" class="edge"><title>s1_4-&gt;s1_9</title><path fill="none" stroke="#000" d="M165.397,-252.35C169.069,-212.728 174.851,-150.341 178.25,-113.673"/><polygon fill="#000" stroke="#000" points="181.744 -113.893 179.182 -103.613 174.774 -113.247 181.744 -113.893"/></g><g id="edge14" class="edge"><title>s1_5-&gt;s1_9</title><path fill="none" stroke="#000" d="M266.084,-269.392C250.495,-255.908 231.136,-236.742 219,-216 200.205,-183.878 190.203,-141.864 185.259,-113.957"/><polygon fill="#000" stroke="#000" points="188.697 -113.293 183.604 -104.002 181.791 -114.441 188.697 -113.293"/></g><g id="node9" class="node"><title>s1_6</title><polygon fill="#fff" stroke="#fff" points="350.147 -215.7 239.853 -215.7 227.853 -203.7 227.853 -152.3 239.853 -140.3 350.147 -140.3 362.147 -152.3 362.147 -203.7 350.147 -215.7"/><path fill="#fff" stroke="#fff" d="M239.853,-215.7C233.853,-215.7 227.853,-209.7 227.853,-203.7"/><path fill="#fff" stroke="#fff" d="M227.853,-152.3C227.853,-146.3 233.853,-140.3 239.853,-140.3"/><path fill="#fff" stroke="#fff" d="M350.147,-140.3C356.147,-140.3 362.147,-146.3 362.147,-152.3"/><path fill="#fff" stroke="#fff" d="M362.147,-203.7C362.147,-209.7 356.147,-215.7 350.147,-215.7"/><polyline fill="none" stroke="#000" points="350.147 -215.7 239.853 -215.7"/><path fill="none" stroke="#000" d="M239.853,-215.7C233.853,-215.7 227.853,-209.7 227.853,-203.7"/><polyline fill="none" stroke="#000" points="227.853 -203.7 227.853 -152.3"/><path fill="none" stroke="#000" d="M227.853,-152.3C227.853,-146.3 233.853,-140.3 239.853,-140.3"/><polyline fill="none" stroke="#000" points="239.853 -140.3 350.147 -140.3"/><path fill="none" stroke="#000" d="M350.147,-140.3C356.147,-140.3 362.147,-146.3 362.147,-152.3"/><polyline fill="none" stroke="#000" points="362.147 -152.3 362.147 -203.7"/><path fill="none" stroke="#000" d="M362.147,-203.7C362.147,-209.7 356.147,-215.7 350.147,-215.7"/><text x="295" y="-199" font-family="Times,serif" font-size="14" text-anchor="middle">BlockStatement</text><text x="295" y="-182.2" font-family="Times,serif" font-size="14" text-anchor="middle">ExpressionStatement</text><text x="295" y="-165.4" font-family="Times,serif" font-size="14" text-anchor="middle">CallExpression</text><text x="295" y="-148.6" font-family="Times,serif" font-size="14" text-anchor="middle">Identifier (hoge)</text></g><g id="edge11" class="edge"><title>s1_5-&gt;s1_6</title><path fill="none" stroke="#000" d="M291.715,-269.334C292.153,-257.284 292.734,-241.309 293.286,-226.147"/><polygon fill="#000" stroke="#000" points="296.795 -225.959 293.66 -215.839 289.799 -225.705 296.795 -225.959"/></g><g id="edge12" class="edge"><title>s1_6-&gt;s1_9</title><path fill="none" stroke="#000" d="M249.944,-140.244C237.624,-130.194 224.525,-119.507 213.091,-110.179"/><polygon fill="#000" stroke="#000" points="215.055 -107.265 205.094 -103.655 210.63 -112.689 215.055 -107.265"/></g></g></svg>