<svg xmlns="http://www.w3.org/2000/svg" xmlns:xlink="http://www.w3.org/1999/xlink" width="146pt" height="250pt" viewBox="0 0 146 250"><g id="graph1" class="graph" transform="scale(1 1) rotate(0) translate(4 246)"><title>_anonymous_0</title><g id="node1" class="node"><title>initial</title><ellipse cx="69" cy="-233" fill="#000" stroke="#000" rx="9" ry="9"/></g><g id="node3" class="node"><title>s1_1</title><polygon fill="#fff" stroke="#fff" points="126.042 -187.601 11.958 -187.601 -.042 -175.601 -.042 -74.399 11.958 -62.399 126.042 -62.399 138.042 -74.399 138.042 -175.601 126.042 -187.601"/><path fill="#fff" stroke="#fff" d="M11.9578,-187.601C5.95784,-187.601 -0.0421557,-181.601 -0.0421557,-175.601"/><path fill="#fff" stroke="#fff" d="M-0.0421557,-74.3994C-0.0421557,-68.3994 5.95784,-62.3994 11.9578,-62.3994"/><path fill="#fff" stroke="#fff" d="M126.042,-62.3994C132.042,-62.3994 138.042,-68.3994 138.042,-74.3994"/><path fill="#fff" stroke="#fff" d="M138.042,-175.601C138.042,-181.601 132.042,-187.601 126.042,-187.601"/><polyline fill="none" stroke="#000" points="126.042 -187.601 11.958 -187.601"/><path fill="none" stroke="#000" d="M11.9578,-187.601C5.95784,-187.601 -0.0421557,-181.601 -0.0421557,-175.601"/><polyline fill="none" stroke="#000" points="-.042 -175.601 -.042 -74.399"/><path fill="none" stroke="#000" d="M-0.0421557,-74.3994C-0.0421557,-68.3994 5.95784,-62.3994 11.9578,-62.3994"/><polyline fill="none" stroke="#000" points="11.958 -62.399 126.042 -62.399"/><path fill="none" stroke="#000" d="M126.042,-62.3994C132.042,-62.3994 138.042,-68.3994 138.042,-74.3994"/><polyline fill="none" stroke="#000" points="138.042 -74.399 138.042 -175.601"/><path fill="none" stroke="#000" d="M138.042,-175.601C138.042,-181.601 132.042,-187.601 126.042,-187.601"/><text x="69" y="-171.2" font-family="Times,serif" font-size="14" text-anchor="middle">Program</text><text x="69" y="-154.4" font-family="Times,serif" font-size="14" text-anchor="middle">ExpressionStatement</text><text x="69" y="-137.6" font-family="Times,serif" font-size="14" text-anchor="middle">CallExpression</text><text x="69" y="-120.8" font-family="Times,serif" font-size="14" text-anchor="middle">MemberExpression</text><text x="69" y="-104" font-family="Times,serif" font-size="14" text-anchor="middle">Identifier (console)</text><text x="69" y="-87.2" font-family="Times,serif" font-size="14" text-anchor="middle">Identifier (log)</text><text x="69" y="-70.4" font-family="Times,serif" font-size="14" text-anchor="middle">Literal (Hello world!)</text></g><g id="edge2" class="edge"><title>initial-&gt;s1_1</title><path fill="none" stroke="#000" d="M69,-223.682C69,-217.432 69,-208.196 69,-197.86"/><polygon fill="#000" stroke="#000" points="72.5 -197.675 69 -187.675 65.5 -197.675 72.5 -197.675"/></g><g id="node2" class="node"><title>final</title><ellipse cx="69" cy="-13" fill="#000" stroke="#000" rx="9" ry="9"/><ellipse cx="69" cy="-13" fill="none" stroke="#000" rx="13" ry="13"/></g><g id="edge3" class="edge"><title>s1_1-&gt;final</title><path fill="none" stroke="#000" d="M69,-62.2476C69,-53.0345 69,-44.0781 69,-36.4335"/><polygon fill="#000" stroke="#000" points="72.5 -36.295 69 -26.295 65.5 -36.295 72.5 -36.295"/></g></g></svg>