<svg xmlns="http://www.w3.org/2000/svg" xmlns:xlink="http://www.w3.org/1999/xlink" width="316" height="652pt" viewBox="0 0 237 652"><g id="graph1" class="graph" transform="scale(1 1) rotate(0) translate(4 648)"><title>_anonymous_0</title><g id="node1" class="node"><title>initial</title><ellipse cx="114" cy="-635" fill="#000" stroke="#000" rx="9" ry="9"/></g><g id="node3" class="node"><title>s1_1</title><polygon fill="#fff" stroke="#fff" points="169.147 -589.3 58.853 -589.3 46.853 -577.3 46.853 -492.7 58.853 -480.7 169.147 -480.7 181.147 -492.7 181.147 -577.3 169.147 -589.3"/><path fill="#fff" stroke="#fff" d="M58.8526,-589.3C52.8526,-589.3 46.8526,-583.3 46.8526,-577.3"/><path fill="#fff" stroke="#fff" d="M46.8526,-492.7C46.8526,-486.7 52.8526,-480.7 58.8526,-480.7"/><path fill="#fff" stroke="#fff" d="M169.147,-480.7C175.147,-480.7 181.147,-486.7 181.147,-492.7"/><path fill="#fff" stroke="#fff" d="M181.147,-577.3C181.147,-583.3 175.147,-589.3 169.147,-589.3"/><polyline fill="none" stroke="#000" points="169.147 -589.3 58.853 -589.3"/><path fill="none" stroke="#000" d="M58.8526,-589.3C52.8526,-589.3 46.8526,-583.3 46.8526,-577.3"/><polyline fill="none" stroke="#000" points="46.853 -577.3 46.853 -492.7"/><path fill="none" stroke="#000" d="M46.8526,-492.7C46.8526,-486.7 52.8526,-480.7 58.8526,-480.7"/><polyline fill="none" stroke="#000" points="58.853 -480.7 169.147 -480.7"/><path fill="none" stroke="#000" d="M169.147,-480.7C175.147,-480.7 181.147,-486.7 181.147,-492.7"/><polyline fill="none" stroke="#000" points="181.147 -492.7 181.147 -577.3"/><path fill="none" stroke="#000" d="M181.147,-577.3C181.147,-583.3 175.147,-589.3 169.147,-589.3"/><text x="114" y="-572.8" font-family="Times,serif" font-size="14" text-anchor="middle">Program</text><text x="114" y="-556" font-family="Times,serif" font-size="14" text-anchor="middle">TryStatement</text><text x="114" y="-539.2" font-family="Times,serif" font-size="14" text-anchor="middle">BlockStatement</text><text x="114" y="-522.4" font-family="Times,serif" font-size="14" text-anchor="middle">ExpressionStatement</text><text x="114" y="-505.6" font-family="Times,serif" font-size="14" text-anchor="middle">CallExpression</text><text x="114" y="-488.8" font-family="Times,serif" font-size="14" text-anchor="middle">Identifier (foo)</text></g><g id="edge2" class="edge"><title>initial-&gt;s1_1</title><path fill="none" stroke="#000" d="M114,-625.98C114,-619.675 114,-610.238 114,-599.813"/><polygon fill="#000" stroke="#000" points="117.5 -599.586 114 -589.586 110.5 -599.586 117.5 -599.586"/></g><g id="node2" class="node"><title>final</title><ellipse cx="114" cy="-13" fill="#000" stroke="#000" rx="9" ry="9"/><ellipse cx="114" cy="-13" fill="none" stroke="#000" rx="13" ry="13"/></g><g id="node4" class="node"><title>s1_2</title><polygon fill="#fff" stroke="#fff" points="217.147 -444.401 106.853 -444.401 94.853 -432.401 94.853 -397.599 106.853 -385.599 217.147 -385.599 229.147 -397.599 229.147 -432.401 217.147 -444.401"/><path fill="#fff" stroke="#fff" d="M106.853,-444.401C100.853,-444.401 94.8526,-438.401 94.8526,-432.401"/><path fill="#fff" stroke="#fff" d="M94.8526,-397.599C94.8526,-391.599 100.853,-385.599 106.853,-385.599"/><path fill="#fff" stroke="#fff" d="M217.147,-385.599C223.147,-385.599 229.147,-391.599 229.147,-397.599"/><path fill="#fff" stroke="#fff" d="M229.147,-432.401C229.147,-438.401 223.147,-444.401 217.147,-444.401"/><polyline fill="none" stroke="#000" points="217.147 -444.401 106.853 -444.401"/><path fill="none" stroke="#000" d="M106.853,-444.401C100.853,-444.401 94.8526,-438.401 94.8526,-432.401"/><polyline fill="none" stroke="#000" points="94.853 -432.401 94.853 -397.599"/><path fill="none" stroke="#000" d="M94.8526,-397.599C94.8526,-391.599 100.853,-385.599 106.853,-385.599"/><polyline fill="none" stroke="#000" points="106.853 -385.599 217.147 -385.599"/><path fill="none" stroke="#000" d="M217.147,-385.599C223.147,-385.599 229.147,-391.599 229.147,-397.599"/><polyline fill="none" stroke="#000" points="229.147 -397.599 229.147 -432.401"/><path fill="none" stroke="#000" d="M229.147,-432.401C229.147,-438.401 223.147,-444.401 217.147,-444.401"/><text x="162" y="-427.6" font-family="Times,serif" font-size="14" text-anchor="middle">ExpressionStatement</text><text x="162" y="-410.8" font-family="Times,serif" font-size="14" text-anchor="middle">CallExpression</text><text x="162" y="-394" font-family="Times,serif" font-size="14" text-anchor="middle">Identifier (bar)</text></g><g id="edge3" class="edge"><title>s1_1-&gt;s1_2</title><path fill="none" stroke="#000" d="M135.753,-480.524C139.43,-471.486 143.177,-462.273 146.646,-453.744"/><polygon fill="#000" stroke="#000" points="149.9 -455.033 150.426 -444.452 143.416 -452.396 149.9 -455.033"/></g><g id="node5" class="node"><title>s1_3</title><polygon fill="#fff" stroke="#fff" points="122.147 -349.601 11.853 -349.601 -.147 -337.601 -.147 -236.399 11.853 -224.399 122.147 -224.399 134.147 -236.399 134.147 -337.601 122.147 -349.601"/><path fill="#fff" stroke="#fff" d="M11.8526,-349.601C5.85263,-349.601 -0.147372,-343.601 -0.147372,-337.601"/><path fill="#fff" stroke="#fff" d="M-0.147372,-236.399C-0.147372,-230.399 5.85263,-224.399 11.8526,-224.399"/><path fill="#fff" stroke="#fff" d="M122.147,-224.399C128.147,-224.399 134.147,-230.399 134.147,-236.399"/><path fill="#fff" stroke="#fff" d="M134.147,-337.601C134.147,-343.601 128.147,-349.601 122.147,-349.601"/><polyline fill="none" stroke="#000" points="122.147 -349.601 11.853 -349.601"/><path fill="none" stroke="#000" d="M11.8526,-349.601C5.85263,-349.601 -0.147372,-343.601 -0.147372,-337.601"/><polyline fill="none" stroke="#000" points="-.147 -337.601 -.147 -236.399"/><path fill="none" stroke="#000" d="M-0.147372,-236.399C-0.147372,-230.399 5.85263,-224.399 11.8526,-224.399"/><polyline fill="none" stroke="#000" points="11.853 -224.399 122.147 -224.399"/><path fill="none" stroke="#000" d="M122.147,-224.399C128.147,-224.399 134.147,-230.399 134.147,-236.399"/><polyline fill="none" stroke="#000" points="134.147 -236.399 134.147 -337.601"/><path fill="none" stroke="#000" d="M134.147,-337.601C134.147,-343.601 128.147,-349.601 122.147,-349.601"/><text x="67" y="-333.2" font-family="Times,serif" font-size="14" text-anchor="middle">CatchClause</text><text x="67" y="-316.4" font-family="Times,serif" font-size="14" text-anchor="middle">Identifier (err)</text><text x="67" y="-299.6" font-family="Times,serif" font-size="14" text-anchor="middle">BlockStatement</text><text x="67" y="-282.8" font-family="Times,serif" font-size="14" text-anchor="middle">ExpressionStatement</text><text x="67" y="-266" font-family="Times,serif" font-size="14" text-anchor="middle">CallExpression</text><text x="67" y="-249.2" font-family="Times,serif" font-size="14" text-anchor="middle">Identifier (hoge)</text><text x="67" y="-232.4" font-family="Times,serif" font-size="14" text-anchor="middle">Identifier (err)</text></g><g id="edge7" class="edge"><title>s1_1-&gt;s1_3</title><path fill="none" stroke="#000" d="M95.6637,-480.644C92.0449,-468.693 88.5753,-456 86,-444 80.162,-416.798 75.9602,-386.514 73.0174,-359.921"/><polygon fill="#000" stroke="#000" points="76.492 -359.495 71.951 -349.923 69.531 -360.238 76.492 -359.495"/></g><g id="edge4" class="edge"><title>s1_2-&gt;s1_3</title><path fill="none" stroke="#000" d="M140.68,-385.723C134.355,-377.334 127.129,-367.75 119.731,-357.939"/><polygon fill="#000" stroke="#000" points="122.308 -355.543 113.493 -349.665 116.719 -359.757 122.308 -355.543"/></g><g id="node6" class="node"><title>s1_4</title><polygon fill="#fff" stroke="#fff" points="169.147 -187.601 58.853 -187.601 46.853 -175.601 46.853 -74.399 58.853 -62.399 169.147 -62.399 181.147 -74.399 181.147 -175.601 169.147 -187.601"/><path fill="#fff" stroke="#fff" d="M58.8526,-187.601C52.8526,-187.601 46.8526,-181.601 46.8526,-175.601"/><path fill="#fff" stroke="#fff" d="M46.8526,-74.3994C46.8526,-68.3994 52.8526,-62.3994 58.8526,-62.3994"/><path fill="#fff" stroke="#fff" d="M169.147,-62.3994C175.147,-62.3994 181.147,-68.3994 181.147,-74.3994"/><path fill="#fff" stroke="#fff" d="M181.147,-175.601C181.147,-181.601 175.147,-187.601 169.147,-187.601"/><polyline fill="none" stroke="#000" points="169.147 -187.601 58.853 -187.601"/><path fill="none" stroke="#000" d="M58.8526,-187.601C52.8526,-187.601 46.8526,-181.601 46.8526,-175.601"/><polyline fill="none" stroke="#000" points="46.853 -175.601 46.853 -74.399"/><path fill="none" stroke="#000" d="M46.8526,-74.3994C46.8526,-68.3994 52.8526,-62.3994 58.8526,-62.3994"/><polyline fill="none" stroke="#000" points="58.853 -62.399 169.147 -62.399"/><path fill="none" stroke="#000" d="M169.147,-62.3994C175.147,-62.3994 181.147,-68.3994 181.147,-74.3994"/><polyline fill="none" stroke="#000" points="181.147 -74.399 181.147 -175.601"/><path fill="none" stroke="#000" d="M181.147,-175.601C181.147,-181.601 175.147,-187.601 169.147,-187.601"/><text x="114" y="-171.2" font-family="Times,serif" font-size="14" text-anchor="middle">BlockStatement</text><text x="114" y="-154.4" font-family="Times,serif" font-size="14" text-anchor="middle">ExpressionStatement</text><text x="114" y="-137.6" font-family="Times,serif" font-size="14" text-anchor="middle">CallExpression</text><text x="114" y="-120.8" font-family="Times,serif" font-size="14" text-anchor="middle">Identifier (fuga)</text><text x="114" y="-104" font-family="Times,serif" font-size="14" text-anchor="middle">ExpressionStatement</text><text x="114" y="-87.2" font-family="Times,serif" font-size="14" text-anchor="middle">CallExpression</text><text x="114" y="-70.4" font-family="Times,serif" font-size="14" text-anchor="middle">Identifier (last)</text></g><g id="edge9" class="edge"><title>s1_2-&gt;s1_4</title><path fill="none" stroke="#000" d="M160.835,-385.75C158.918,-348.425 154.135,-280.766 143,-224 141.313,-215.398 139.196,-206.466 136.88,-197.651"/><polygon fill="#000" stroke="#000" points="140.195 -196.504 134.191 -187.774 133.441 -198.342 140.195 -196.504"/></g><g id="edge5" class="edge"><title>s1_3-&gt;s1_4</title><path fill="none" stroke="#000" d="M85.1714,-224.14C87.7514,-215.357 90.4217,-206.266 93.0491,-197.322"/><polygon fill="#000" stroke="#000" points="96.416 -198.277 95.877 -187.696 89.7 -196.304 96.416 -198.277"/></g><g id="edge10" class="edge"><title>s1_4-&gt;final</title><path fill="none" stroke="#000" d="M114,-62.2476C114,-53.0345 114,-44.0781 114,-36.4335"/><polygon fill="#000" stroke="#000" points="117.5 -36.295 114 -26.295 110.5 -36.295 117.5 -36.295"/></g></g></svg>