<svg xmlns="http://www.w3.org/2000/svg" xmlns:xlink="http://www.w3.org/1999/xlink" width="323pt" height="680pt" viewBox="0 0 323 680"><g id="graph1" class="graph" transform="scale(1 1) rotate(0) translate(4 676)"><title>_anonymous_0</title><g id="node1" class="node"><title>initial</title><ellipse cx="248" cy="-663" fill="#000" stroke="#000" rx="9" ry="9"/></g><g id="node3" class="node"><title>s1_1</title><polygon fill="#fff" stroke="#fff" points="303.147 -617.3 192.853 -617.3 180.853 -605.3 180.853 -520.7 192.853 -508.7 303.147 -508.7 315.147 -520.7 315.147 -605.3 303.147 -617.3"/><path fill="#fff" stroke="#fff" d="M192.853,-617.3C186.853,-617.3 180.853,-611.3 180.853,-605.3"/><path fill="#fff" stroke="#fff" d="M180.853,-520.7C180.853,-514.7 186.853,-508.7 192.853,-508.7"/><path fill="#fff" stroke="#fff" d="M303.147,-508.7C309.147,-508.7 315.147,-514.7 315.147,-520.7"/><path fill="#fff" stroke="#fff" d="M315.147,-605.3C315.147,-611.3 309.147,-617.3 303.147,-617.3"/><polyline fill="none" stroke="#000" points="303.147 -617.3 192.853 -617.3"/><path fill="none" stroke="#000" d="M192.853,-617.3C186.853,-617.3 180.853,-611.3 180.853,-605.3"/><polyline fill="none" stroke="#000" points="180.853 -605.3 180.853 -520.7"/><path fill="none" stroke="#000" d="M180.853,-520.7C180.853,-514.7 186.853,-508.7 192.853,-508.7"/><polyline fill="none" stroke="#000" points="192.853 -508.7 303.147 -508.7"/><path fill="none" stroke="#000" d="M303.147,-508.7C309.147,-508.7 315.147,-514.7 315.147,-520.7"/><polyline fill="none" stroke="#000" points="315.147 -520.7 315.147 -605.3"/><path fill="none" stroke="#000" d="M315.147,-605.3C315.147,-611.3 309.147,-617.3 303.147,-617.3"/><text x="248" y="-600.8" font-family="Times,serif" font-size="14" text-anchor="middle">Program</text><text x="248" y="-584" font-family="Times,serif" font-size="14" text-anchor="middle">TryStatement</text><text x="248" y="-567.2" font-family="Times,serif" font-size="14" text-anchor="middle">BlockStatement</text><text x="248" y="-550.4" font-family="Times,serif" font-size="14" text-anchor="middle">ExpressionStatement</text><text x="248" y="-533.6" font-family="Times,serif" font-size="14" text-anchor="middle">CallExpression</text><text x="248" y="-516.8" font-family="Times,serif" font-size="14" text-anchor="middle">Identifier (foo)</text></g><g id="edge2" class="edge"><title>initial-&gt;s1_1</title><path fill="none" stroke="#000" d="M248,-653.98C248,-647.675 248,-638.238 248,-627.813"/><polygon fill="#000" stroke="#000" points="251.5 -627.586 248 -617.586 244.5 -627.586 251.5 -627.586"/></g><g id="node2" class="node"><title>final</title><ellipse cx="142" cy="-13" fill="#000" stroke="#000" rx="9" ry="9"/><ellipse cx="142" cy="-13" fill="none" stroke="#000" rx="13" ry="13"/></g><g id="node4" class="node"><title>s1_2</title><polygon fill="#fff" stroke="#fff" points="238.339 -471.602 175.661 -471.602 163.661 -459.602 163.661 -442.398 175.661 -430.398 238.339 -430.398 250.339 -442.398 250.339 -459.602 238.339 -471.602"/><path fill="#fff" stroke="#fff" d="M175.661,-471.602C169.661,-471.602 163.661,-465.602 163.661,-459.602"/><path fill="#fff" stroke="#fff" d="M163.661,-442.398C163.661,-436.398 169.661,-430.398 175.661,-430.398"/><path fill="#fff" stroke="#fff" d="M238.339,-430.398C244.339,-430.398 250.339,-436.398 250.339,-442.398"/><path fill="#fff" stroke="#fff" d="M250.339,-459.602C250.339,-465.602 244.339,-471.602 238.339,-471.602"/><polyline fill="none" stroke="#000" points="238.339 -471.602 175.661 -471.602"/><path fill="none" stroke="#000" d="M175.661,-471.602C169.661,-471.602 163.661,-465.602 163.661,-459.602"/><polyline fill="none" stroke="#000" points="163.661 -459.602 163.661 -442.398"/><path fill="none" stroke="#000" d="M163.661,-442.398C163.661,-436.398 169.661,-430.398 175.661,-430.398"/><polyline fill="none" stroke="#000" points="175.661 -430.398 238.339 -430.398"/><path fill="none" stroke="#000" d="M238.339,-430.398C244.339,-430.398 250.339,-436.398 250.339,-442.398"/><polyline fill="none" stroke="#000" points="250.339 -442.398 250.339 -459.602"/><path fill="none" stroke="#000" d="M250.339,-459.602C250.339,-465.602 244.339,-471.602 238.339,-471.602"/><text x="207" y="-455.2" font-family="Times,serif" font-size="14" text-anchor="middle">IfStatement</text><text x="207" y="-438.4" font-family="Times,serif" font-size="14" text-anchor="middle">Identifier (a)</text></g><g id="edge3" class="edge"><title>s1_1-&gt;s1_2</title><path fill="none" stroke="#000" d="M228.101,-508.611C224.581,-499.169 221.038,-489.663 217.887,-481.208"/><polygon fill="#000" stroke="#000" points="221.164 -479.98 214.392 -471.833 214.605 -482.425 221.164 -479.98"/></g><g id="node7" class="node"><title>s1_6</title><polygon fill="#fff" stroke="#fff" points="250.147 -281.601 139.853 -281.601 127.853 -269.601 127.853 -168.399 139.853 -156.399 250.147 -156.399 262.147 -168.399 262.147 -269.601 250.147 -281.601"/><path fill="#fff" stroke="#fff" d="M139.853,-281.601C133.853,-281.601 127.853,-275.601 127.853,-269.601"/><path fill="#fff" stroke="#fff" d="M127.853,-168.399C127.853,-162.399 133.853,-156.399 139.853,-156.399"/><path fill="#fff" stroke="#fff" d="M250.147,-156.399C256.147,-156.399 262.147,-162.399 262.147,-168.399"/><path fill="#fff" stroke="#fff" d="M262.147,-269.601C262.147,-275.601 256.147,-281.601 250.147,-281.601"/><polyline fill="none" stroke="#000" points="250.147 -281.601 139.853 -281.601"/><path fill="none" stroke="#000" d="M139.853,-281.601C133.853,-281.601 127.853,-275.601 127.853,-269.601"/><polyline fill="none" stroke="#000" points="127.853 -269.601 127.853 -168.399"/><path fill="none" stroke="#000" d="M127.853,-168.399C127.853,-162.399 133.853,-156.399 139.853,-156.399"/><polyline fill="none" stroke="#000" points="139.853 -156.399 250.147 -156.399"/><path fill="none" stroke="#000" d="M250.147,-156.399C256.147,-156.399 262.147,-162.399 262.147,-168.399"/><polyline fill="none" stroke="#000" points="262.147 -168.399 262.147 -269.601"/><path fill="none" stroke="#000" d="M262.147,-269.601C262.147,-275.601 256.147,-281.601 250.147,-281.601"/><text x="195" y="-265.2" font-family="Times,serif" font-size="14" text-anchor="middle">CatchClause</text><text x="195" y="-248.4" font-family="Times,serif" font-size="14" text-anchor="middle">Identifier (err)</text><text x="195" y="-231.6" font-family="Times,serif" font-size="14" text-anchor="middle">BlockStatement</text><text x="195" y="-214.8" font-family="Times,serif" font-size="14" text-anchor="middle">ExpressionStatement</text><text x="195" y="-198" font-family="Times,serif" font-size="14" text-anchor="middle">CallExpression</text><text x="195" y="-181.2" font-family="Times,serif" font-size="14" text-anchor="middle">Identifier (hoge)</text><text x="195" y="-164.4" font-family="Times,serif" font-size="14" text-anchor="middle">Identifier (err)</text></g><g id="edge9" class="edge"><title>s1_1-&gt;s1_6</title><path fill="none" stroke="#000" d="M265.496,-508.624C279.169,-458.161 292.566,-381 271,-318 267.758,-308.528 263.185,-299.263 257.874,-290.444"/><polygon fill="#000" stroke="#000" points="260.672 -288.323 252.338 -281.781 254.774 -292.092 260.672 -288.323"/></g><g id="node5" class="node"><title>s1_3</title><polygon fill="#fff" stroke="#fff" points="250.329 -393.7 163.671 -393.7 151.671 -381.7 151.671 -330.3 163.671 -318.3 250.329 -318.3 262.329 -330.3 262.329 -381.7 250.329 -393.7"/><path fill="#fff" stroke="#fff" d="M163.671,-393.7C157.671,-393.7 151.671,-387.7 151.671,-381.7"/><path fill="#fff" stroke="#fff" d="M151.671,-330.3C151.671,-324.3 157.671,-318.3 163.671,-318.3"/><path fill="#fff" stroke="#fff" d="M250.329,-318.3C256.329,-318.3 262.329,-324.3 262.329,-330.3"/><path fill="#fff" stroke="#fff" d="M262.329,-381.7C262.329,-387.7 256.329,-393.7 250.329,-393.7"/><polyline fill="none" stroke="#000" points="250.329 -393.7 163.671 -393.7"/><path fill="none" stroke="#000" d="M163.671,-393.7C157.671,-393.7 151.671,-387.7 151.671,-381.7"/><polyline fill="none" stroke="#000" points="151.671 -381.7 151.671 -330.3"/><path fill="none" stroke="#000" d="M151.671,-330.3C151.671,-324.3 157.671,-318.3 163.671,-318.3"/><polyline fill="none" stroke="#000" points="163.671 -318.3 250.329 -318.3"/><path fill="none" stroke="#000" d="M250.329,-318.3C256.329,-318.3 262.329,-324.3 262.329,-330.3"/><polyline fill="none" stroke="#000" points="262.329 -330.3 262.329 -381.7"/><path fill="none" stroke="#000" d="M262.329,-381.7C262.329,-387.7 256.329,-393.7 250.329,-393.7"/><text x="207" y="-377" font-family="Times,serif" font-size="14" text-anchor="middle">BlockStatement</text><text x="207" y="-360.2" font-family="Times,serif" font-size="14" text-anchor="middle">ThrowStatement</text><text x="207" y="-343.4" font-family="Times,serif" font-size="14" text-anchor="middle">NewExpression</text><text x="207" y="-326.6" font-family="Times,serif" font-size="14" text-anchor="middle">Identifier (Error)</text></g><g id="edge4" class="edge"><title>s1_2-&gt;s1_3</title><path fill="none" stroke="#000" d="M207,-430.277C207,-422.524 207,-413.265 207,-403.98"/><polygon fill="#000" stroke="#000" points="210.5 -403.965 207 -393.965 203.5 -403.965 210.5 -403.965"/></g><g id="node6" class="node"><title>s1_5</title><polygon fill="#fff" stroke="#fff" points="122.147 -385.401 11.853 -385.401 -.147 -373.401 -.147 -338.599 11.853 -326.599 122.147 -326.599 134.147 -338.599 134.147 -373.401 122.147 -385.401"/><path fill="#fff" stroke="#fff" d="M11.8526,-385.401C5.85263,-385.401 -0.147372,-379.401 -0.147372,-373.401"/><path fill="#fff" stroke="#fff" d="M-0.147372,-338.599C-0.147372,-332.599 5.85263,-326.599 11.8526,-326.599"/><path fill="#fff" stroke="#fff" d="M122.147,-326.599C128.147,-326.599 134.147,-332.599 134.147,-338.599"/><path fill="#fff" stroke="#fff" d="M134.147,-373.401C134.147,-379.401 128.147,-385.401 122.147,-385.401"/><polyline fill="none" stroke="#000" points="122.147 -385.401 11.853 -385.401"/><path fill="none" stroke="#000" d="M11.8526,-385.401C5.85263,-385.401 -0.147372,-379.401 -0.147372,-373.401"/><polyline fill="none" stroke="#000" points="-.147 -373.401 -.147 -338.599"/><path fill="none" stroke="#000" d="M-0.147372,-338.599C-0.147372,-332.599 5.85263,-326.599 11.8526,-326.599"/><polyline fill="none" stroke="#000" points="11.853 -326.599 122.147 -326.599"/><path fill="none" stroke="#000" d="M122.147,-326.599C128.147,-326.599 134.147,-332.599 134.147,-338.599"/><polyline fill="none" stroke="#000" points="134.147 -338.599 134.147 -373.401"/><path fill="none" stroke="#000" d="M134.147,-373.401C134.147,-379.401 128.147,-385.401 122.147,-385.401"/><text x="67" y="-368.6" font-family="Times,serif" font-size="14" text-anchor="middle">ExpressionStatement</text><text x="67" y="-351.8" font-family="Times,serif" font-size="14" text-anchor="middle">CallExpression</text><text x="67" y="-335" font-family="Times,serif" font-size="14" text-anchor="middle">Identifier (bar)</text></g><g id="edge11" class="edge"><title>s1_2-&gt;s1_5</title><path fill="none" stroke="#000" d="M177.31,-430.277C160.103,-418.847 137.967,-404.142 118.045,-390.909"/><polygon fill="#000" stroke="#000" points="119.93 -387.959 109.664 -385.341 116.057 -393.79 119.93 -387.959"/></g><g id="edge13" class="edge"><title>s1_3-&gt;s1_6</title><path fill="none" stroke="#000" d="M203.721,-318.111C202.995,-309.943 202.201,-301.016 201.398,-291.982"/><polygon fill="#000" stroke="#000" points="204.863 -291.422 200.491 -281.771 197.89 -292.042 204.863 -291.422"/></g><g id="edge6" class="edge"><title>s1_5-&gt;s1_6</title><path fill="none" stroke="#000" d="M93.833,-326.7C104.348,-315.609 116.912,-302.359 129.551,-289.029"/><polygon fill="#000" stroke="#000" points="132.227 -291.293 136.567 -281.628 127.147 -286.477 132.227 -291.293"/></g><g id="node8" class="node"><title>s1_7</title><polygon fill="#fff" stroke="#fff" points="197.147 -120.401 86.853 -120.401 74.853 -108.401 74.853 -73.599 86.853 -61.599 197.147 -61.599 209.147 -73.599 209.147 -108.401 197.147 -120.401"/><path fill="#fff" stroke="#fff" d="M86.8526,-120.401C80.8526,-120.401 74.8526,-114.401 74.8526,-108.401"/><path fill="#fff" stroke="#fff" d="M74.8526,-73.5986C74.8526,-67.5986 80.8526,-61.5986 86.8526,-61.5986"/><path fill="#fff" stroke="#fff" d="M197.147,-61.5986C203.147,-61.5986 209.147,-67.5986 209.147,-73.5986"/><path fill="#fff" stroke="#fff" d="M209.147,-108.401C209.147,-114.401 203.147,-120.401 197.147,-120.401"/><polyline fill="none" stroke="#000" points="197.147 -120.401 86.853 -120.401"/><path fill="none" stroke="#000" d="M86.8526,-120.401C80.8526,-120.401 74.8526,-114.401 74.8526,-108.401"/><polyline fill="none" stroke="#000" points="74.853 -108.401 74.853 -73.599"/><path fill="none" stroke="#000" d="M74.8526,-73.5986C74.8526,-67.5986 80.8526,-61.5986 86.8526,-61.5986"/><polyline fill="none" stroke="#000" points="86.853 -61.599 197.147 -61.599"/><path fill="none" stroke="#000" d="M197.147,-61.5986C203.147,-61.5986 209.147,-67.5986 209.147,-73.5986"/><polyline fill="none" stroke="#000" points="209.147 -73.599 209.147 -108.401"/><path fill="none" stroke="#000" d="M209.147,-108.401C209.147,-114.401 203.147,-120.401 197.147,-120.401"/><text x="142" y="-103.6" font-family="Times,serif" font-size="14" text-anchor="middle">ExpressionStatement</text><text x="142" y="-86.8" font-family="Times,serif" font-size="14" text-anchor="middle">CallExpression</text><text x="142" y="-70" font-family="Times,serif" font-size="14" text-anchor="middle">Identifier (last)</text></g><g id="edge15" class="edge"><title>s1_5-&gt;s1_7</title><path fill="none" stroke="#000" d="M73.536,-326.764C82.7028,-287.987 100.357,-216.205 119,-156 121.611,-147.569 124.658,-138.605 127.664,-130.139"/><polygon fill="#000" stroke="#000" points="131.044 -131.083 131.145 -120.489 124.459 -128.708 131.044 -131.083"/></g><g id="edge7" class="edge"><title>s1_6-&gt;s1_7</title><path fill="none" stroke="#000" d="M168.966,-156.107C165.165,-147.072 161.351,-138.005 157.838,-129.652"/><polygon fill="#000" stroke="#000" points="160.974 -128.08 153.87 -120.219 154.521 -130.794 160.974 -128.08"/></g><g id="edge16" class="edge"><title>s1_7-&gt;final</title><path fill="none" stroke="#000" d="M142,-61.7004C142,-53.2282 142,-44.0665 142,-36.0585"/><polygon fill="#000" stroke="#000" points="145.5 -36.027 142 -26.027 138.5 -36.027 145.5 -36.027"/></g></g></svg>