<svg xmlns="http://www.w3.org/2000/svg" xmlns:xlink="http://www.w3.org/1999/xlink" width="185pt" height="538pt" viewBox="0 0 185 538"><g id="graph1" class="graph" transform="scale(1 1) rotate(0) translate(4 534)"><title>_anonymous_0</title><g id="node1" class="node"><title>initial</title><ellipse cx="114" cy="-521" fill="#000" stroke="#000" rx="9" ry="9"/></g><g id="node3" class="node"><title>s1_1</title><polygon fill="#fff" stroke="#fff" points="153.319 -475.602 74.681 -475.602 62.681 -463.602 62.681 -446.398 74.681 -434.398 153.319 -434.398 165.319 -446.398 165.319 -463.602 153.319 -475.602"/><path fill="#fff" stroke="#fff" d="M74.6808,-475.602C68.6808,-475.602 62.6808,-469.602 62.6808,-463.602"/><path fill="#fff" stroke="#fff" d="M62.6808,-446.398C62.6808,-440.398 68.6808,-434.398 74.6808,-434.398"/><path fill="#fff" stroke="#fff" d="M153.319,-434.398C159.319,-434.398 165.319,-440.398 165.319,-446.398"/><path fill="#fff" stroke="#fff" d="M165.319,-463.602C165.319,-469.602 159.319,-475.602 153.319,-475.602"/><polyline fill="none" stroke="#000" points="153.319 -475.602 74.681 -475.602"/><path fill="none" stroke="#000" d="M74.6808,-475.602C68.6808,-475.602 62.6808,-469.602 62.6808,-463.602"/><polyline fill="none" stroke="#000" points="62.681 -463.602 62.681 -446.398"/><path fill="none" stroke="#000" d="M62.6808,-446.398C62.6808,-440.398 68.6808,-434.398 74.6808,-434.398"/><polyline fill="none" stroke="#000" points="74.681 -434.398 153.319 -434.398"/><path fill="none" stroke="#000" d="M153.319,-434.398C159.319,-434.398 165.319,-440.398 165.319,-446.398"/><polyline fill="none" stroke="#000" points="165.319 -446.398 165.319 -463.602"/><path fill="none" stroke="#000" d="M165.319,-463.602C165.319,-469.602 159.319,-475.602 153.319,-475.602"/><text x="114" y="-459.2" font-family="Times,serif" font-size="14" text-anchor="middle">Program</text><text x="114" y="-442.4" font-family="Times,serif" font-size="14" text-anchor="middle">ForInStatement</text></g><g id="edge2" class="edge"><title>initial-&gt;s1_1</title><path fill="none" stroke="#000" d="M114,-511.894C114,-505.274 114,-495.485 114,-485.94"/><polygon fill="#000" stroke="#000" points="117.5 -485.842 114 -475.842 110.5 -485.842 117.5 -485.842"/></g><g id="node2" class="node"><title>final</title><ellipse cx="114" cy="-13" fill="#000" stroke="#000" rx="9" ry="9"/><ellipse cx="114" cy="-13" fill="none" stroke="#000" rx="13" ry="13"/></g><g id="node4" class="node"><title>s1_3</title><polygon fill="#fff" stroke="#fff" points="151.097 -398 76.903 -398 64.903 -386 64.903 -374 76.903 -362 151.097 -362 163.097 -374 163.097 -386 151.097 -398"/><path fill="#fff" stroke="#fff" d="M76.9034,-398C70.9034,-398 64.9034,-392 64.9034,-386"/><path fill="#fff" stroke="#fff" d="M64.9034,-374C64.9034,-368 70.9034,-362 76.9034,-362"/><path fill="#fff" stroke="#fff" d="M151.097,-362C157.097,-362 163.097,-368 163.097,-374"/><path fill="#fff" stroke="#fff" d="M163.097,-386C163.097,-392 157.097,-398 151.097,-398"/><polyline fill="none" stroke="#000" points="151.097 -398 76.903 -398"/><path fill="none" stroke="#000" d="M76.9034,-398C70.9034,-398 64.9034,-392 64.9034,-386"/><polyline fill="none" stroke="#000" points="64.903 -386 64.903 -374"/><path fill="none" stroke="#000" d="M64.9034,-374C64.9034,-368 70.9034,-362 76.9034,-362"/><polyline fill="none" stroke="#000" points="76.903 -362 151.097 -362"/><path fill="none" stroke="#000" d="M151.097,-362C157.097,-362 163.097,-368 163.097,-374"/><polyline fill="none" stroke="#000" points="163.097 -374 163.097 -386"/><path fill="none" stroke="#000" d="M163.097,-386C163.097,-392 157.097,-398 151.097,-398"/><text x="114" y="-375.8" font-family="Times,serif" font-size="14" text-anchor="middle">Identifier (obj)</text></g><g id="edge3" class="edge"><title>s1_1-&gt;s1_3</title><path fill="none" stroke="#000" d="M114,-434.052C114,-426.216 114,-417.089 114,-408.636"/><polygon fill="#000" stroke="#000" points="117.5 -408.439 114 -398.439 110.5 -408.439 117.5 -408.439"/></g><g id="node5" class="node"><title>s1_2</title><polygon fill="#fff" stroke="#fff" points="119.617 -326.401 14.383 -326.401 2.383 -314.401 2.383 -279.599 14.383 -267.599 119.617 -267.599 131.617 -279.599 131.617 -314.401 119.617 -326.401"/><path fill="#fff" stroke="#fff" d="M14.3833,-326.401C8.38328,-326.401 2.38328,-320.401 2.38328,-314.401"/><path fill="#fff" stroke="#fff" d="M2.38328,-279.599C2.38328,-273.599 8.38328,-267.599 14.3833,-267.599"/><path fill="#fff" stroke="#fff" d="M119.617,-267.599C125.617,-267.599 131.617,-273.599 131.617,-279.599"/><path fill="#fff" stroke="#fff" d="M131.617,-314.401C131.617,-320.401 125.617,-326.401 119.617,-326.401"/><polyline fill="none" stroke="#000" points="119.617 -326.401 14.383 -326.401"/><path fill="none" stroke="#000" d="M14.3833,-326.401C8.38328,-326.401 2.38328,-320.401 2.38328,-314.401"/><polyline fill="none" stroke="#000" points="2.383 -314.401 2.383 -279.599"/><path fill="none" stroke="#000" d="M2.38328,-279.599C2.38328,-273.599 8.38328,-267.599 14.3833,-267.599"/><polyline fill="none" stroke="#000" points="14.383 -267.599 119.617 -267.599"/><path fill="none" stroke="#000" d="M119.617,-267.599C125.617,-267.599 131.617,-273.599 131.617,-279.599"/><polyline fill="none" stroke="#000" points="131.617 -279.599 131.617 -314.401"/><path fill="none" stroke="#000" d="M131.617,-314.401C131.617,-320.401 125.617,-326.401 119.617,-326.401"/><text x="67" y="-309.6" font-family="Times,serif" font-size="14" text-anchor="middle">VariableDeclaration</text><text x="67" y="-292.8" font-family="Times,serif" font-size="14" text-anchor="middle">VariableDeclarator</text><text x="67" y="-276" font-family="Times,serif" font-size="14" text-anchor="middle">Identifier (key)</text></g><g id="edge4" class="edge"><title>s1_3-&gt;s1_2</title><path fill="none" stroke="#000" d="M104.033,-361.822C99.4992,-354.009 93.9468,-344.44 88.5344,-335.112"/><polygon fill="#000" stroke="#000" points="91.472 -333.201 83.426 -326.309 85.418 -336.715 91.472 -333.201"/></g><g id="node7" class="node"><title>s1_5</title><polygon fill="#fff" stroke="#fff" points="165.484 -103.602 62.516 -103.602 50.516 -91.602 50.516 -74.398 62.516 -62.398 165.484 -62.398 177.484 -74.398 177.484 -91.602 165.484 -103.602"/><path fill="#fff" stroke="#fff" d="M62.5157,-103.602C56.5157,-103.602 50.5157,-97.6019 50.5157,-91.6019"/><path fill="#fff" stroke="#fff" d="M50.5157,-74.3981C50.5157,-68.3981 56.5157,-62.3981 62.5157,-62.3981"/><path fill="#fff" stroke="#fff" d="M165.484,-62.3981C171.484,-62.3981 177.484,-68.3981 177.484,-74.3981"/><path fill="#fff" stroke="#fff" d="M177.484,-91.6019C177.484,-97.6019 171.484,-103.602 165.484,-103.602"/><polyline fill="none" stroke="#000" points="165.484 -103.602 62.516 -103.602"/><path fill="none" stroke="#000" d="M62.5157,-103.602C56.5157,-103.602 50.5157,-97.6019 50.5157,-91.6019"/><polyline fill="none" stroke="#000" points="50.516 -91.602 50.516 -74.398"/><path fill="none" stroke="#000" d="M50.5157,-74.3981C50.5157,-68.3981 56.5157,-62.3981 62.5157,-62.3981"/><polyline fill="none" stroke="#000" points="62.516 -62.398 165.484 -62.398"/><path fill="none" stroke="#000" d="M165.484,-62.3981C171.484,-62.3981 177.484,-68.3981 177.484,-74.3981"/><polyline fill="none" stroke="#000" points="177.484 -74.398 177.484 -91.602"/><path fill="none" stroke="#000" d="M177.484,-91.6019C177.484,-97.6019 171.484,-103.602 165.484,-103.602"/><text x="114" y="-87.2" font-family="Times,serif" font-size="14" text-anchor="middle">ForInStatement:exit</text><text x="114" y="-70.4" font-family="Times,serif" font-size="14" text-anchor="middle">Program:exit</text></g><g id="edge8" class="edge"><title>s1_3-&gt;s1_5</title><path fill="none" stroke="#000" d="M124.891,-361.573C130.533,-351.566 136.88,-338.531 140,-326 159.973,-245.771 162.566,-220.329 143,-140 140.717,-130.626 136.569,-121.069 132.111,-112.567"/><polygon fill="#000" stroke="#000" points="135.155 -110.84 127.225 -103.814 129.043 -114.251 135.155 -110.84"/></g><g id="node6" class="node"><title>s1_4</title><polygon fill="#fff" stroke="#fff" points="122.147 -232 11.853 -232 -.147 -220 -.147 -152 11.853 -140 122.147 -140 134.147 -152 134.147 -220 122.147 -232"/><path fill="#fff" stroke="#fff" d="M11.8526,-232C5.85263,-232 -0.147372,-226 -0.147372,-220"/><path fill="#fff" stroke="#fff" d="M-0.147372,-152C-0.147372,-146 5.85263,-140 11.8526,-140"/><path fill="#fff" stroke="#fff" d="M122.147,-140C128.147,-140 134.147,-146 134.147,-152"/><path fill="#fff" stroke="#fff" d="M134.147,-220C134.147,-226 128.147,-232 122.147,-232"/><polyline fill="none" stroke="#000" points="122.147 -232 11.853 -232"/><path fill="none" stroke="#000" d="M11.8526,-232C5.85263,-232 -0.147372,-226 -0.147372,-220"/><polyline fill="none" stroke="#000" points="-.147 -220 -.147 -152"/><path fill="none" stroke="#000" d="M-0.147372,-152C-0.147372,-146 5.85263,-140 11.8526,-140"/><polyline fill="none" stroke="#000" points="11.853 -140 122.147 -140"/><path fill="none" stroke="#000" d="M122.147,-140C128.147,-140 134.147,-146 134.147,-152"/><polyline fill="none" stroke="#000" points="134.147 -152 134.147 -220"/><path fill="none" stroke="#000" d="M134.147,-220C134.147,-226 128.147,-232 122.147,-232"/><text x="67" y="-215.4" font-family="Times,serif" font-size="14" text-anchor="middle">BlockStatement</text><text x="67" y="-198.6" font-family="Times,serif" font-size="14" text-anchor="middle">ExpressionStatement</text><text x="67" y="-181.8" font-family="Times,serif" font-size="14" text-anchor="middle">CallExpression</text><text x="67" y="-165" font-family="Times,serif" font-size="14" text-anchor="middle">Identifier (foo)</text><text x="67" y="-148.2" font-family="Times,serif" font-size="14" text-anchor="middle">Identifier (key)</text></g><g id="edge5" class="edge"><title>s1_2-&gt;s1_4</title><path fill="none" stroke="#000" d="M60.9942,-267.646C60.5136,-259.848 60.2658,-251.114 60.2507,-242.351"/><polygon fill="#000" stroke="#000" points="63.753 -242.134 60.34 -232.104 56.753 -242.073 63.753 -242.134"/></g><g id="edge6" class="edge"><title>s1_4-&gt;s1_2</title><path fill="none" stroke="#000" d="M73.66,-232.104C73.8235,-240.564 73.7642,-249.334 73.4822,-257.568"/><polygon fill="#000" stroke="#000" points="69.982 -257.492 73.006 -267.646 76.974 -257.823 69.982 -257.492"/></g><g id="edge10" class="edge"><title>s1_4-&gt;s1_5</title><path fill="none" stroke="#000" d="M88.0256,-139.817C92.2417,-130.757 96.5653,-121.466 100.445,-113.128"/><polygon fill="#000" stroke="#000" points="103.718 -114.392 104.763 -103.849 97.371 -111.439 103.718 -114.392"/></g><g id="edge11" class="edge"><title>s1_5-&gt;final</title><path fill="none" stroke="#000" d="M114,-62.3316C114,-54.2587 114,-44.8663 114,-36.5198"/><polygon fill="#000" stroke="#000" points="117.5 -36.349 114 -26.349 110.5 -36.349 117.5 -36.349"/></g></g></svg>