<svg xmlns="http://www.w3.org/2000/svg" xmlns:xlink="http://www.w3.org/1999/xlink" width="544" height="416pt" viewBox="0 0 408 416"><g id="graph1" class="graph" transform="scale(1 1) rotate(0) translate(4 412)"><title>_anonymous_0</title><g id="node1" class="node"><title>initial</title><ellipse cx="193" cy="-399" fill="#000" stroke="#000" rx="9" ry="9"/></g><g id="node3" class="node"><title>s1_1</title><polygon fill="#fff" stroke="#fff" points="234.149 -353.602 151.851 -353.602 139.851 -341.602 139.851 -324.398 151.851 -312.398 234.149 -312.398 246.149 -324.398 246.149 -341.602 234.149 -353.602"/><path fill="#fff" stroke="#fff" d="M151.851,-353.602C145.851,-353.602 139.851,-347.602 139.851,-341.602"/><path fill="#fff" stroke="#fff" d="M139.851,-324.398C139.851,-318.398 145.851,-312.398 151.851,-312.398"/><path fill="#fff" stroke="#fff" d="M234.149,-312.398C240.149,-312.398 246.149,-318.398 246.149,-324.398"/><path fill="#fff" stroke="#fff" d="M246.149,-341.602C246.149,-347.602 240.149,-353.602 234.149,-353.602"/><polyline fill="none" stroke="#000" points="234.149 -353.602 151.851 -353.602"/><path fill="none" stroke="#000" d="M151.851,-353.602C145.851,-353.602 139.851,-347.602 139.851,-341.602"/><polyline fill="none" stroke="#000" points="139.851 -341.602 139.851 -324.398"/><path fill="none" stroke="#000" d="M139.851,-324.398C139.851,-318.398 145.851,-312.398 151.851,-312.398"/><polyline fill="none" stroke="#000" points="151.851 -312.398 234.149 -312.398"/><path fill="none" stroke="#000" d="M234.149,-312.398C240.149,-312.398 246.149,-318.398 246.149,-324.398"/><polyline fill="none" stroke="#000" points="246.149 -324.398 246.149 -341.602"/><path fill="none" stroke="#000" d="M246.149,-341.602C246.149,-347.602 240.149,-353.602 234.149,-353.602"/><text x="193" y="-337.2" font-family="Times,serif" font-size="14" text-anchor="middle">Program</text><text x="193" y="-320.4" font-family="Times,serif" font-size="14" text-anchor="middle">WhileStatement</text></g><g id="edge2" class="edge"><title>initial-&gt;s1_1</title><path fill="none" stroke="#000" d="M193,-389.894C193,-383.274 193,-373.485 193,-363.94"/><polygon fill="#000" stroke="#000" points="196.5 -363.842 193 -353.842 189.5 -363.842 196.5 -363.842"/></g><g id="node2" class="node"><title>final</title><ellipse cx="335" cy="-29" fill="#000" stroke="#000" rx="9" ry="9"/><ellipse cx="335" cy="-29" fill="none" stroke="#000" rx="13" ry="13"/></g><g id="node4" class="node"><title>s1_2</title><polygon fill="#fff" stroke="#fff" points="224.339 -276 161.661 -276 149.661 -264 149.661 -252 161.661 -240 224.339 -240 236.339 -252 236.339 -264 224.339 -276"/><path fill="#fff" stroke="#fff" d="M161.661,-276C155.661,-276 149.661,-270 149.661,-264"/><path fill="#fff" stroke="#fff" d="M149.661,-252C149.661,-246 155.661,-240 161.661,-240"/><path fill="#fff" stroke="#fff" d="M224.339,-240C230.339,-240 236.339,-246 236.339,-252"/><path fill="#fff" stroke="#fff" d="M236.339,-264C236.339,-270 230.339,-276 224.339,-276"/><polyline fill="none" stroke="#000" points="224.339 -276 161.661 -276"/><path fill="none" stroke="#000" d="M161.661,-276C155.661,-276 149.661,-270 149.661,-264"/><polyline fill="none" stroke="#000" points="149.661 -264 149.661 -252"/><path fill="none" stroke="#000" d="M149.661,-252C149.661,-246 155.661,-240 161.661,-240"/><polyline fill="none" stroke="#000" points="161.661 -240 224.339 -240"/><path fill="none" stroke="#000" d="M224.339,-240C230.339,-240 236.339,-246 236.339,-252"/><polyline fill="none" stroke="#000" points="236.339 -252 236.339 -264"/><path fill="none" stroke="#000" d="M236.339,-264C236.339,-270 230.339,-276 224.339,-276"/><text x="193" y="-253.8" font-family="Times,serif" font-size="14" text-anchor="middle">Identifier (a)</text></g><g id="edge3" class="edge"><title>s1_1-&gt;s1_2</title><path fill="none" stroke="#000" d="M193,-312.052C193,-304.216 193,-295.089 193,-286.636"/><polygon fill="#000" stroke="#000" points="196.5 -286.439 193 -276.439 189.5 -286.439 196.5 -286.439"/></g><g id="node5" class="node"><title>s1_3</title><polygon fill="#fff" stroke="#fff" points="201.147 -203.3 90.853 -203.3 78.853 -191.3 78.853 -106.7 90.853 -94.7 201.147 -94.7 213.147 -106.7 213.147 -191.3 201.147 -203.3"/><path fill="#fff" stroke="#fff" d="M90.8526,-203.3C84.8526,-203.3 78.8526,-197.3 78.8526,-191.3"/><path fill="#fff" stroke="#fff" d="M78.8526,-106.7C78.8526,-100.7 84.8526,-94.6998 90.8526,-94.6998"/><path fill="#fff" stroke="#fff" d="M201.147,-94.6998C207.147,-94.6998 213.147,-100.7 213.147,-106.7"/><path fill="#fff" stroke="#fff" d="M213.147,-191.3C213.147,-197.3 207.147,-203.3 201.147,-203.3"/><polyline fill="none" stroke="#000" points="201.147 -203.3 90.853 -203.3"/><path fill="none" stroke="#000" d="M90.8526,-203.3C84.8526,-203.3 78.8526,-197.3 78.8526,-191.3"/><polyline fill="none" stroke="#000" points="78.853 -191.3 78.853 -106.7"/><path fill="none" stroke="#000" d="M78.8526,-106.7C78.8526,-100.7 84.8526,-94.6998 90.8526,-94.6998"/><polyline fill="none" stroke="#000" points="90.853 -94.7 201.147 -94.7"/><path fill="none" stroke="#000" d="M201.147,-94.6998C207.147,-94.6998 213.147,-100.7 213.147,-106.7"/><polyline fill="none" stroke="#000" points="213.147 -106.7 213.147 -191.3"/><path fill="none" stroke="#000" d="M213.147,-191.3C213.147,-197.3 207.147,-203.3 201.147,-203.3"/><text x="146" y="-186.8" font-family="Times,serif" font-size="14" text-anchor="middle">BlockStatement</text><text x="146" y="-170" font-family="Times,serif" font-size="14" text-anchor="middle">ExpressionStatement</text><text x="146" y="-153.2" font-family="Times,serif" font-size="14" text-anchor="middle">CallExpression</text><text x="146" y="-136.4" font-family="Times,serif" font-size="14" text-anchor="middle">Identifier (foo)</text><text x="146" y="-119.6" font-family="Times,serif" font-size="14" text-anchor="middle">IfStatement</text><text x="146" y="-102.8" font-family="Times,serif" font-size="14" text-anchor="middle">Identifier (b)</text></g><g id="edge4" class="edge"><title>s1_2-&gt;s1_3</title><path fill="none" stroke="#000" d="M185.449,-239.809C182.111,-232.21 177.961,-222.761 173.617,-212.872"/><polygon fill="#000" stroke="#000" points="176.817 -211.454 169.59 -203.706 170.408 -214.269 176.817 -211.454"/></g><g id="node7" class="node"><title>s1_7</title><polygon fill="#fff" stroke="#fff" points="388.314 -169.602 281.686 -169.602 269.686 -157.602 269.686 -140.398 281.686 -128.398 388.314 -128.398 400.314 -140.398 400.314 -157.602 388.314 -169.602"/><path fill="#fff" stroke="#fff" d="M281.686,-169.602C275.686,-169.602 269.686,-163.602 269.686,-157.602"/><path fill="#fff" stroke="#fff" d="M269.686,-140.398C269.686,-134.398 275.686,-128.398 281.686,-128.398"/><path fill="#fff" stroke="#fff" d="M388.314,-128.398C394.314,-128.398 400.314,-134.398 400.314,-140.398"/><path fill="#fff" stroke="#fff" d="M400.314,-157.602C400.314,-163.602 394.314,-169.602 388.314,-169.602"/><polyline fill="none" stroke="#000" points="388.314 -169.602 281.686 -169.602"/><path fill="none" stroke="#000" d="M281.686,-169.602C275.686,-169.602 269.686,-163.602 269.686,-157.602"/><polyline fill="none" stroke="#000" points="269.686 -157.602 269.686 -140.398"/><path fill="none" stroke="#000" d="M269.686,-140.398C269.686,-134.398 275.686,-128.398 281.686,-128.398"/><polyline fill="none" stroke="#000" points="281.686 -128.398 388.314 -128.398"/><path fill="none" stroke="#000" d="M388.314,-128.398C394.314,-128.398 400.314,-134.398 400.314,-140.398"/><polyline fill="none" stroke="#000" points="400.314 -140.398 400.314 -157.602"/><path fill="none" stroke="#000" d="M400.314,-157.602C400.314,-163.602 394.314,-169.602 388.314,-169.602"/><text x="335" y="-153.2" font-family="Times,serif" font-size="14" text-anchor="middle">WhileStatement:exit</text><text x="335" y="-136.4" font-family="Times,serif" font-size="14" text-anchor="middle">Program:exit</text></g><g id="edge7" class="edge"><title>s1_2-&gt;s1_7</title><path fill="none" stroke="#000" d="M215.815,-239.809C238.735,-222.537 274.341,-195.708 300.672,-175.867"/><polygon fill="#000" stroke="#000" points="302.987 -178.505 308.867 -169.692 298.774 -172.914 302.987 -178.505"/></g><g id="node6" class="node"><title>s1_4</title><polygon fill="#fff" stroke="#fff" points="110.49 -49.602 11.509 -49.602 -.49 -37.602 -.49 -20.398 11.509 -8.398 110.49 -8.398 122.49 -20.398 122.49 -37.602 110.49 -49.602"/><path fill="#fff" stroke="#fff" d="M11.5095,-49.6019C5.50954,-49.6019 -0.490457,-43.6019 -0.490457,-37.6019"/><path fill="#fff" stroke="#fff" d="M-0.490457,-20.3981C-0.490457,-14.3981 5.50954,-8.3981 11.5095,-8.3981"/><path fill="#fff" stroke="#fff" d="M110.49,-8.3981C116.49,-8.3981 122.49,-14.3981 122.49,-20.3981"/><path fill="#fff" stroke="#fff" d="M122.49,-37.6019C122.49,-43.6019 116.49,-49.6019 110.49,-49.6019"/><polyline fill="none" stroke="#000" points="110.49 -49.602 11.509 -49.602"/><path fill="none" stroke="#000" d="M11.5095,-49.6019C5.50954,-49.6019 -0.490457,-43.6019 -0.490457,-37.6019"/><polyline fill="none" stroke="#000" points="-.49 -37.602 -.49 -20.398"/><path fill="none" stroke="#000" d="M-0.490457,-20.3981C-0.490457,-14.3981 5.50954,-8.3981 11.5095,-8.3981"/><polyline fill="none" stroke="#000" points="11.509 -8.398 110.49 -8.398"/><path fill="none" stroke="#000" d="M110.49,-8.3981C116.49,-8.3981 122.49,-14.3981 122.49,-20.3981"/><polyline fill="none" stroke="#000" points="122.49 -20.398 122.49 -37.602"/><path fill="none" stroke="#000" d="M122.49,-37.6019C122.49,-43.6019 116.49,-49.6019 110.49,-49.6019"/><text x="61" y="-33.2" font-family="Times,serif" font-size="14" text-anchor="middle">BlockStatement</text><text x="61" y="-16.4" font-family="Times,serif" font-size="14" text-anchor="middle">ContinueStatement</text></g><g id="edge5" class="edge"><title>s1_3-&gt;s1_4</title><path fill="none" stroke="#000" d="M107.479,-94.524C98.3982,-81.9176 89.0729,-68.9717 81.181,-58.0159"/><polygon fill="#000" stroke="#000" points="83.876 -55.769 75.191 -49.701 78.196 -59.861 83.876 -55.769"/></g><g id="node8" class="node"><title>s1_6</title><polygon fill="#fff" stroke="#fff" points="282.147 -58.401 171.853 -58.401 159.853 -46.401 159.853 -11.599 171.853 .401 282.147 .401 294.147 -11.599 294.147 -46.401 282.147 -58.401"/><path fill="#fff" stroke="#fff" d="M171.853,-58.4014C165.853,-58.4014 159.853,-52.4014 159.853,-46.4014"/><path fill="#fff" stroke="#fff" d="M159.853,-11.5986C159.853,-5.59862 165.853,0.401379 171.853,0.401379"/><path fill="#fff" stroke="#fff" d="M282.147,0.401379C288.147,0.401379 294.147,-5.59862 294.147,-11.5986"/><path fill="#fff" stroke="#fff" d="M294.147,-46.4014C294.147,-52.4014 288.147,-58.4014 282.147,-58.4014"/><polyline fill="none" stroke="#000" points="282.147 -58.401 171.853 -58.401"/><path fill="none" stroke="#000" d="M171.853,-58.4014C165.853,-58.4014 159.853,-52.4014 159.853,-46.4014"/><polyline fill="none" stroke="#000" points="159.853 -46.401 159.853 -11.599"/><path fill="none" stroke="#000" d="M159.853,-11.5986C159.853,-5.59862 165.853,0.401379 171.853,0.401379"/><polyline fill="none" stroke="#000" points="171.853 .401 282.147 .401"/><path fill="none" stroke="#000" d="M282.147,0.401379C288.147,0.401379 294.147,-5.59862 294.147,-11.5986"/><polyline fill="none" stroke="#000" points="294.147 -11.599 294.147 -46.401"/><path fill="none" stroke="#000" d="M294.147,-46.4014C294.147,-52.4014 288.147,-58.4014 282.147,-58.4014"/><text x="227" y="-41.6" font-family="Times,serif" font-size="14" text-anchor="middle">ExpressionStatement</text><text x="227" y="-24.8" font-family="Times,serif" font-size="14" text-anchor="middle">CallExpression</text><text x="227" y="-8" font-family="Times,serif" font-size="14" text-anchor="middle">Identifier (bar)</text></g><g id="edge9" class="edge"><title>s1_3-&gt;s1_6</title><path fill="none" stroke="#000" d="M182.708,-94.524C189.112,-85.1942 195.644,-75.6786 201.656,-66.9212"/><polygon fill="#000" stroke="#000" points="204.696 -68.677 207.47 -58.452 198.925 -64.715 204.696 -68.677"/></g><g id="edge6" class="edge"><title>s1_4-&gt;s1_2</title><path fill="none" stroke="#000" d="M55.8178,-49.8729C48.0052,-84.5943 37.3518,-157.069 70,-204 86.0013,-227.001 114.192,-240.092 139.552,-247.506"/><polygon fill="#000" stroke="#000" points="138.9 -250.955 149.466 -250.168 140.715 -244.194 138.9 -250.955"/></g><g id="edge12" class="edge"><title>s1_7-&gt;final</title><path fill="none" stroke="#000" d="M335,-128.249C335,-107.258 335,-74.136 335,-52.2408"/><polygon fill="#000" stroke="#000" points="338.5 -52.217 335 -42.217 331.5 -52.217 338.5 -52.217"/></g><g id="edge10" class="edge"><title>s1_6-&gt;s1_2</title><path fill="none" stroke="#000" d="M230.184,-58.3131C233.209,-93.2424 235.52,-154.122 222,-204 219.488,-213.268 215.064,-222.685 210.417,-230.959"/><polygon fill="#000" stroke="#000" points="207.291 -229.367 205.165 -239.747 213.299 -232.958 207.291 -229.367"/></g></g></svg>