<svg xmlns="http://www.w3.org/2000/svg" xmlns:xlink="http://www.w3.org/1999/xlink" width="142pt" height="312" viewBox="0 0 142 234"><g id="graph1" class="graph" transform="scale(1 1) rotate(0) translate(4 230)"><title>_anonymous_0</title><g id="node1" class="node"><title>initial</title><ellipse cx="67" cy="-217" fill="#000" stroke="#000" rx="9" ry="9"/></g><g id="node3" class="node"><title>s1_1</title><polygon fill="#fff" stroke="#fff" points="122.147 -171.3 11.853 -171.3 -.147 -159.3 -.147 -74.7 11.853 -62.7 122.147 -62.7 134.147 -74.7 134.147 -159.3 122.147 -171.3"/><path fill="#fff" stroke="#fff" d="M11.8526,-171.3C5.85263,-171.3 -0.147372,-165.3 -0.147372,-159.3"/><path fill="#fff" stroke="#fff" d="M-0.147372,-74.6998C-0.147372,-68.6998 5.85263,-62.6998 11.8526,-62.6998"/><path fill="#fff" stroke="#fff" d="M122.147,-62.6998C128.147,-62.6998 134.147,-68.6998 134.147,-74.6998"/><path fill="#fff" stroke="#fff" d="M134.147,-159.3C134.147,-165.3 128.147,-171.3 122.147,-171.3"/><polyline fill="none" stroke="#000" points="122.147 -171.3 11.853 -171.3"/><path fill="none" stroke="#000" d="M11.8526,-171.3C5.85263,-171.3 -0.147372,-165.3 -0.147372,-159.3"/><polyline fill="none" stroke="#000" points="-.147 -159.3 -.147 -74.7"/><path fill="none" stroke="#000" d="M-0.147372,-74.6998C-0.147372,-68.6998 5.85263,-62.6998 11.8526,-62.6998"/><polyline fill="none" stroke="#000" points="11.853 -62.7 122.147 -62.7"/><path fill="none" stroke="#000" d="M122.147,-62.6998C128.147,-62.6998 134.147,-68.6998 134.147,-74.6998"/><polyline fill="none" stroke="#000" points="134.147 -74.7 134.147 -159.3"/><path fill="none" stroke="#000" d="M134.147,-159.3C134.147,-165.3 128.147,-171.3 122.147,-171.3"/><text x="67" y="-154.8" font-family="Times,serif" font-size="14" text-anchor="middle">Program</text><text x="67" y="-138" font-family="Times,serif" font-size="14" text-anchor="middle">FunctionDeclaration</text><text x="67" y="-121.2" font-family="Times,serif" font-size="14" text-anchor="middle">ExpressionStatement</text><text x="67" y="-104.4" font-family="Times,serif" font-size="14" text-anchor="middle">CallExpression</text><text x="67" y="-87.6" font-family="Times,serif" font-size="14" text-anchor="middle">Identifier (foo)</text><text x="67" y="-70.8" font-family="Times,serif" font-size="14" text-anchor="middle">Literal (false)</text></g><g id="edge2" class="edge"><title>initial-&gt;s1_1</title><path fill="none" stroke="#000" d="M67,-207.98C67,-201.675 67,-192.238 67,-181.813"/><polygon fill="#000" stroke="#000" points="70.5 -181.586 67 -171.586 63.5 -181.586 70.5 -181.586"/></g><g id="node2" class="node"><title>final</title><ellipse cx="67" cy="-13" fill="#000" stroke="#000" rx="9" ry="9"/><ellipse cx="67" cy="-13" fill="none" stroke="#000" rx="13" ry="13"/></g><g id="edge3" class="edge"><title>s1_1-&gt;final</title><path fill="none" stroke="#000" d="M67,-62.6102C67,-53.3058 67,-44.1078 67,-36.2584"/><polygon fill="#000" stroke="#000" points="70.5 -36.19 67 -26.19 63.5 -36.19 70.5 -36.19"/></g></g></svg>