<svg xmlns="http://www.w3.org/2000/svg" xmlns:xlink="http://www.w3.org/1999/xlink" width="152pt" height="322pt" viewBox="0 0 152 322"><g id="graph1" class="graph" transform="scale(1 1) rotate(0) translate(4 318)"><title>_anonymous_0</title><g id="node1" class="node"><title>initial</title><ellipse cx="72" cy="-305" fill="#000" stroke="#000" rx="9" ry="9"/></g><g id="node2" class="node"><title>s1_1</title><polygon fill="#fff" stroke="#fff" points="113.149 -259.602 30.851 -259.602 18.851 -247.602 18.851 -230.398 30.851 -218.398 113.149 -218.398 125.149 -230.398 125.149 -247.602 113.149 -259.602"/><path fill="#fff" stroke="#fff" d="M30.8505,-259.602C24.8505,-259.602 18.8505,-253.602 18.8505,-247.602"/><path fill="#fff" stroke="#fff" d="M18.8505,-230.398C18.8505,-224.398 24.8505,-218.398 30.8505,-218.398"/><path fill="#fff" stroke="#fff" d="M113.149,-218.398C119.149,-218.398 125.149,-224.398 125.149,-230.398"/><path fill="#fff" stroke="#fff" d="M125.149,-247.602C125.149,-253.602 119.149,-259.602 113.149,-259.602"/><polyline fill="none" stroke="#000" points="113.149 -259.602 30.851 -259.602"/><path fill="none" stroke="#000" d="M30.8505,-259.602C24.8505,-259.602 18.8505,-253.602 18.8505,-247.602"/><polyline fill="none" stroke="#000" points="18.851 -247.602 18.851 -230.398"/><path fill="none" stroke="#000" d="M18.8505,-230.398C18.8505,-224.398 24.8505,-218.398 30.8505,-218.398"/><polyline fill="none" stroke="#000" points="30.851 -218.398 113.149 -218.398"/><path fill="none" stroke="#000" d="M113.149,-218.398C119.149,-218.398 125.149,-224.398 125.149,-230.398"/><polyline fill="none" stroke="#000" points="125.149 -230.398 125.149 -247.602"/><path fill="none" stroke="#000" d="M125.149,-247.602C125.149,-253.602 119.149,-259.602 113.149,-259.602"/><text x="72" y="-243.2" font-family="Times,serif" font-size="14" text-anchor="middle">Program</text><text x="72" y="-226.4" font-family="Times,serif" font-size="14" text-anchor="middle">WhileStatement</text></g><g id="edge2" class="edge"><title>initial-&gt;s1_1</title><path fill="none" stroke="#000" d="M72,-295.894C72,-289.274 72,-279.485 72,-269.94"/><polygon fill="#000" stroke="#000" points="75.5 -269.842 72 -259.842 68.5 -269.842 75.5 -269.842"/></g><g id="node3" class="node"><title>s1_2</title><polygon fill="#fff" stroke="#fff" points="103.339 -182 40.661 -182 28.661 -170 28.661 -158 40.661 -146 103.339 -146 115.339 -158 115.339 -170 103.339 -182"/><path fill="#fff" stroke="#fff" d="M40.6614,-182C34.6614,-182 28.6614,-176 28.6614,-170"/><path fill="#fff" stroke="#fff" d="M28.6614,-158C28.6614,-152 34.6614,-146 40.6614,-146"/><path fill="#fff" stroke="#fff" d="M103.339,-146C109.339,-146 115.339,-152 115.339,-158"/><path fill="#fff" stroke="#fff" d="M115.339,-170C115.339,-176 109.339,-182 103.339,-182"/><polyline fill="none" stroke="#000" points="103.339 -182 40.661 -182"/><path fill="none" stroke="#000" d="M40.6614,-182C34.6614,-182 28.6614,-176 28.6614,-170"/><polyline fill="none" stroke="#000" points="28.661 -170 28.661 -158"/><path fill="none" stroke="#000" d="M28.6614,-158C28.6614,-152 34.6614,-146 40.6614,-146"/><polyline fill="none" stroke="#000" points="40.661 -146 103.339 -146"/><path fill="none" stroke="#000" d="M103.339,-146C109.339,-146 115.339,-152 115.339,-158"/><polyline fill="none" stroke="#000" points="115.339 -158 115.339 -170"/><path fill="none" stroke="#000" d="M115.339,-170C115.339,-176 109.339,-182 103.339,-182"/><text x="72" y="-159.8" font-family="Times,serif" font-size="14" text-anchor="middle">Identifier (a)</text></g><g id="edge3" class="edge"><title>s1_1-&gt;s1_2</title><path fill="none" stroke="#000" d="M72,-218.052C72,-210.216 72,-201.089 72,-192.636"/><polygon fill="#000" stroke="#000" points="75.5 -192.439 72 -182.439 68.5 -192.439 75.5 -192.439"/></g><g id="node4" class="node"><title>s1_3</title><polygon fill="#fff" stroke="#fff" points="132.317 -109.3 11.683 -109.3 -.317 -97.3 -.317 -12.7 11.683 -.7 132.317 -.7 144.317 -12.7 144.317 -97.3 132.317 -109.3"/><path fill="#fff" stroke="#fff" d="M11.6828,-109.3C5.68279,-109.3 -0.317209,-103.3 -0.317209,-97.3002"/><path fill="#fff" stroke="#fff" d="M-0.317209,-12.6998C-0.317209,-6.69982 5.68279,-0.699817 11.6828,-0.699817"/><path fill="#fff" stroke="#fff" d="M132.317,-0.699817C138.317,-0.699817 144.317,-6.69982 144.317,-12.6998"/><path fill="#fff" stroke="#fff" d="M144.317,-97.3002C144.317,-103.3 138.317,-109.3 132.317,-109.3"/><polyline fill="none" stroke="#000" points="132.317 -109.3 11.683 -109.3"/><path fill="none" stroke="#000" d="M11.6828,-109.3C5.68279,-109.3 -0.317209,-103.3 -0.317209,-97.3002"/><polyline fill="none" stroke="#000" points="-.317 -97.3 -.317 -12.7"/><path fill="none" stroke="#000" d="M-0.317209,-12.6998C-0.317209,-6.69982 5.68279,-0.699817 11.6828,-0.699817"/><polyline fill="none" stroke="#000" points="11.683 -.7 132.317 -.7"/><path fill="none" stroke="#000" d="M132.317,-0.699817C138.317,-0.699817 144.317,-6.69982 144.317,-12.6998"/><polyline fill="none" stroke="#000" points="144.317 -12.7 144.317 -97.3"/><path fill="none" stroke="#000" d="M144.317,-97.3002C144.317,-103.3 138.317,-109.3 132.317,-109.3"/><text x="72" y="-92.8" font-family="Times,serif" font-size="14" text-anchor="middle">BlockStatement</text><text x="72" y="-76" font-family="Times,serif" font-size="14" text-anchor="middle">ExpressionStatement</text><text x="72" y="-59.2" font-family="Times,serif" font-size="14" text-anchor="middle">AssignmentExpression</text><text x="72" y="-42.4" font-family="Times,serif" font-size="14" text-anchor="middle">Identifier (a)</text><text x="72" y="-25.6" font-family="Times,serif" font-size="14" text-anchor="middle">CallExpression</text><text x="72" y="-8.8" font-family="Times,serif" font-size="14" text-anchor="middle">Identifier (foo)</text></g><g id="edge4" class="edge"><title>s1_2-&gt;s1_3</title><path fill="none" stroke="#000" d="M72,-145.809C72,-138.443 72,-129.338 72,-119.779"/><polygon fill="#000" stroke="#000" points="75.5 -119.706 72 -109.706 68.5 -119.706 75.5 -119.706"/></g></g></svg>