<svg xmlns="http://www.w3.org/2000/svg" xmlns:xlink="http://www.w3.org/1999/xlink" width="248" height="472pt" viewBox="0 0 186 472"><g id="graph1" class="graph" transform="scale(1 1) rotate(0) translate(4 468)"><title>_anonymous_0</title><g id="node1" class="node"><title>initial</title><ellipse cx="114" cy="-455" fill="#000" stroke="#000" rx="9" ry="9"/></g><g id="node2" class="node"><title>s1_1</title><polygon fill="#fff" stroke="#fff" points="166.617 -409.3 61.383 -409.3 49.383 -397.3 49.383 -312.7 61.383 -300.7 166.617 -300.7 178.617 -312.7 178.617 -397.3 166.617 -409.3"/><path fill="#fff" stroke="#fff" d="M61.3833,-409.3C55.3833,-409.3 49.3833,-403.3 49.3833,-397.3"/><path fill="#fff" stroke="#fff" d="M49.3833,-312.7C49.3833,-306.7 55.3833,-300.7 61.3833,-300.7"/><path fill="#fff" stroke="#fff" d="M166.617,-300.7C172.617,-300.7 178.617,-306.7 178.617,-312.7"/><path fill="#fff" stroke="#fff" d="M178.617,-397.3C178.617,-403.3 172.617,-409.3 166.617,-409.3"/><polyline fill="none" stroke="#000" points="166.617 -409.3 61.383 -409.3"/><path fill="none" stroke="#000" d="M61.3833,-409.3C55.3833,-409.3 49.3833,-403.3 49.3833,-397.3"/><polyline fill="none" stroke="#000" points="49.383 -397.3 49.383 -312.7"/><path fill="none" stroke="#000" d="M49.3833,-312.7C49.3833,-306.7 55.3833,-300.7 61.3833,-300.7"/><polyline fill="none" stroke="#000" points="61.383 -300.7 166.617 -300.7"/><path fill="none" stroke="#000" d="M166.617,-300.7C172.617,-300.7 178.617,-306.7 178.617,-312.7"/><polyline fill="none" stroke="#000" points="178.617 -312.7 178.617 -397.3"/><path fill="none" stroke="#000" d="M178.617,-397.3C178.617,-403.3 172.617,-409.3 166.617,-409.3"/><text x="114" y="-392.8" font-family="Times,serif" font-size="14" text-anchor="middle">Program</text><text x="114" y="-376" font-family="Times,serif" font-size="14" text-anchor="middle">ForStatement</text><text x="114" y="-359.2" font-family="Times,serif" font-size="14" text-anchor="middle">VariableDeclaration</text><text x="114" y="-342.4" font-family="Times,serif" font-size="14" text-anchor="middle">VariableDeclarator</text><text x="114" y="-325.6" font-family="Times,serif" font-size="14" text-anchor="middle">Identifier (i)</text><text x="114" y="-308.8" font-family="Times,serif" font-size="14" text-anchor="middle">Literal (0)</text></g><g id="edge2" class="edge"><title>initial-&gt;s1_1</title><path fill="none" stroke="#000" d="M114,-445.98C114,-439.675 114,-430.238 114,-419.813"/><polygon fill="#000" stroke="#000" points="117.5 -419.586 114 -409.586 110.5 -419.586 117.5 -419.586"/></g><g id="node3" class="node"><title>s1_2</title><polygon fill="#fff" stroke="#fff" points="160.233 -264.401 67.767 -264.401 55.767 -252.401 55.767 -217.599 67.767 -205.599 160.233 -205.599 172.233 -217.599 172.233 -252.401 160.233 -264.401"/><path fill="#fff" stroke="#fff" d="M67.7673,-264.401C61.7673,-264.401 55.7673,-258.401 55.7673,-252.401"/><path fill="#fff" stroke="#fff" d="M55.7673,-217.599C55.7673,-211.599 61.7673,-205.599 67.7673,-205.599"/><path fill="#fff" stroke="#fff" d="M160.233,-205.599C166.233,-205.599 172.233,-211.599 172.233,-217.599"/><path fill="#fff" stroke="#fff" d="M172.233,-252.401C172.233,-258.401 166.233,-264.401 160.233,-264.401"/><polyline fill="none" stroke="#000" points="160.233 -264.401 67.767 -264.401"/><path fill="none" stroke="#000" d="M67.7673,-264.401C61.7673,-264.401 55.7673,-258.401 55.7673,-252.401"/><polyline fill="none" stroke="#000" points="55.767 -252.401 55.767 -217.599"/><path fill="none" stroke="#000" d="M55.7673,-217.599C55.7673,-211.599 61.7673,-205.599 67.7673,-205.599"/><polyline fill="none" stroke="#000" points="67.767 -205.599 160.233 -205.599"/><path fill="none" stroke="#000" d="M160.233,-205.599C166.233,-205.599 172.233,-211.599 172.233,-217.599"/><polyline fill="none" stroke="#000" points="172.233 -217.599 172.233 -252.401"/><path fill="none" stroke="#000" d="M172.233,-252.401C172.233,-258.401 166.233,-264.401 160.233,-264.401"/><text x="114" y="-247.6" font-family="Times,serif" font-size="14" text-anchor="middle">BinaryExpression</text><text x="114" y="-230.8" font-family="Times,serif" font-size="14" text-anchor="middle">Identifier (i)</text><text x="114" y="-214" font-family="Times,serif" font-size="14" text-anchor="middle">Literal (10)</text></g><g id="edge3" class="edge"><title>s1_1-&gt;s1_2</title><path fill="none" stroke="#000" d="M114,-300.524C114,-291.777 114,-282.867 114,-274.572"/><polygon fill="#000" stroke="#000" points="117.5 -274.452 114 -264.452 110.5 -274.452 117.5 -274.452"/></g><g id="node4" class="node"><title>s1_3</title><polygon fill="#fff" stroke="#fff" points="122.147 -170 11.853 -170 -.147 -158 -.147 -90 11.853 -78 122.147 -78 134.147 -90 134.147 -158 122.147 -170"/><path fill="#fff" stroke="#fff" d="M11.8526,-170C5.85263,-170 -0.147372,-164 -0.147372,-158"/><path fill="#fff" stroke="#fff" d="M-0.147372,-90C-0.147372,-84 5.85263,-78 11.8526,-78"/><path fill="#fff" stroke="#fff" d="M122.147,-78C128.147,-78 134.147,-84 134.147,-90"/><path fill="#fff" stroke="#fff" d="M134.147,-158C134.147,-164 128.147,-170 122.147,-170"/><polyline fill="none" stroke="#000" points="122.147 -170 11.853 -170"/><path fill="none" stroke="#000" d="M11.8526,-170C5.85263,-170 -0.147372,-164 -0.147372,-158"/><polyline fill="none" stroke="#000" points="-.147 -158 -.147 -90"/><path fill="none" stroke="#000" d="M-0.147372,-90C-0.147372,-84 5.85263,-78 11.8526,-78"/><polyline fill="none" stroke="#000" points="11.853 -78 122.147 -78"/><path fill="none" stroke="#000" d="M122.147,-78C128.147,-78 134.147,-84 134.147,-90"/><polyline fill="none" stroke="#000" points="134.147 -90 134.147 -158"/><path fill="none" stroke="#000" d="M134.147,-158C134.147,-164 128.147,-170 122.147,-170"/><text x="67" y="-153.4" font-family="Times,serif" font-size="14" text-anchor="middle">BlockStatement</text><text x="67" y="-136.6" font-family="Times,serif" font-size="14" text-anchor="middle">ExpressionStatement</text><text x="67" y="-119.8" font-family="Times,serif" font-size="14" text-anchor="middle">CallExpression</text><text x="67" y="-103" font-family="Times,serif" font-size="14" text-anchor="middle">Identifier (foo)</text><text x="67" y="-86.2" font-family="Times,serif" font-size="14" text-anchor="middle">Identifier (i)</text></g><g id="edge4" class="edge"><title>s1_2-&gt;s1_3</title><path fill="none" stroke="#000" d="M101.774,-205.646C98.3019,-197.594 94.3994,-188.543 90.4971,-179.493"/><polygon fill="#000" stroke="#000" points="93.622 -177.901 86.448 -170.104 87.194 -180.673 93.622 -177.901"/></g><g id="node5" class="node"><title>s1_4</title><polygon fill="#fff" stroke="#fff" points="160.977 -41.602 67.023 -41.602 55.023 -29.602 55.023 -12.398 67.023 -.398 160.977 -.398 172.977 -12.398 172.977 -29.602 160.977 -41.602"/><path fill="#fff" stroke="#fff" d="M67.0234,-41.6019C61.0234,-41.6019 55.0234,-35.6019 55.0234,-29.6019"/><path fill="#fff" stroke="#fff" d="M55.0234,-12.3981C55.0234,-6.3981 61.0234,-0.398095 67.0234,-0.398095"/><path fill="#fff" stroke="#fff" d="M160.977,-0.398095C166.977,-0.398095 172.977,-6.3981 172.977,-12.3981"/><path fill="#fff" stroke="#fff" d="M172.977,-29.6019C172.977,-35.6019 166.977,-41.6019 160.977,-41.6019"/><polyline fill="none" stroke="#000" points="160.977 -41.602 67.023 -41.602"/><path fill="none" stroke="#000" d="M67.0234,-41.6019C61.0234,-41.6019 55.0234,-35.6019 55.0234,-29.6019"/><polyline fill="none" stroke="#000" points="55.023 -29.602 55.023 -12.398"/><path fill="none" stroke="#000" d="M55.0234,-12.3981C55.0234,-6.3981 61.0234,-0.398095 67.0234,-0.398095"/><polyline fill="none" stroke="#000" points="67.023 -.398 160.977 -.398"/><path fill="none" stroke="#000" d="M160.977,-0.398095C166.977,-0.398095 172.977,-6.3981 172.977,-12.3981"/><polyline fill="none" stroke="#000" points="172.977 -12.398 172.977 -29.602"/><path fill="none" stroke="#000" d="M172.977,-29.6019C172.977,-35.6019 166.977,-41.6019 160.977,-41.6019"/><text x="114" y="-25.2" font-family="Times,serif" font-size="14" text-anchor="middle">UpdateExpression</text><text x="114" y="-8.4" font-family="Times,serif" font-size="14" text-anchor="middle">Identifier (i)</text></g><g id="edge6" class="edge"><title>s1_3-&gt;s1_4</title><path fill="none" stroke="red" d="M88.0256,-77.8174C92.2417,-68.7572 96.5653,-59.4661 100.445,-51.1281"/><polygon fill="red" stroke="red" points="103.718 -52.392 104.763 -41.849 97.371 -49.439 103.718 -52.392"/></g><g id="edge8" class="edge"><title>s1_4-&gt;s1_2</title><path fill="none" stroke="none" d="M127.225,-41.8137C133.324,-52.1325 139.891,-65.235 143,-78 152.676,-117.727 151.633,-130.033 143,-170 141.091,-178.837 137.857,-187.92 134.226,-196.368"/><polygon fill="none" stroke="none" points="130.985 -195.038 130.005 -205.588 137.35 -197.952 130.985 -195.038"/></g></g></svg>